<?xml version="1.0" standalone="no"?>
<!DOCTYPE svg PUBLIC "-//W3C//DTD SVG 1.1//EN" "http://www.w3.org/Graphics/SVG/1.1/DTD/svg11.dtd" >
<!--
2013-9-30: Created.
-->
<svg>
<metadata>
Created by iconfont
</metadata>
<defs>

<font id="iconfont" horiz-adv-x="1024" >
  <font-face
    font-family="iconfont"
    font-weight="500"
    font-stretch="normal"
    units-per-em="1024"
    ascent="896"
    descent="-128"
  />
    <missing-glyph />
    
    <glyph glyph-name="dinuan-svgqietu-01" unicode="&#59117;" d="M933.1-5.1H91.5c-15.1 0-27.3 11.8-27.3 26.3s12.2 26.3 27.3 26.3h841.6c15.1 0 27.3-11.8 27.3-26.3s-12.2-26.3-27.3-26.3zM933.1 145.3H91.5c-15.1 0-27.3 11.8-27.3 26.3s12.2 26.3 27.3 26.3h841.6c15.1 0 27.3-11.8 27.3-26.3s-12.2-26.3-27.3-26.3zM782.2 281c-15.1 0-27.3 11.8-27.3 26.3 0 10.3 6.2 19.3 15.2 23.6 4.7 2.5 58.3 32.1 58.3 109.2 0 23.1-17.6 45.6-38.1 71.6-41.1 52.3-97.3 123.8-29.9 247.4 7 12.9 23.5 17.7 36.8 11 13.3-6.8 18.4-22.7 11.4-35.6-51.2-93.9-14.2-141.1 25.1-191.1 24.2-30.8 49.2-62.6 49.2-103.4 0-113.1-86.4-159-100.7-159zM488.5 280.8c-15.1 0-27.3 11.8-27.3 26.3 0 10.3 6.2 19.3 15.2 23.6 4.7 2.5 58.3 32.1 58.3 109.3 0 23.1-17.7 45.6-38.1 71.6-41.1 52.3-97.3 123.9-29.9 247.5 7 12.9 23.5 17.7 36.8 11 13.3-6.8 18.4-22.7 11.4-35.6-51.3-94-14.2-141.2 25.1-191.2 24.2-30.8 49.2-62.6 49.2-103.5 0.1-113.2-86.3-159-100.7-159zM194.9 281c-15.1 0-27.3 11.8-27.3 26.3 0 10.3 6.2 19.3 15.2 23.6 4.7 2.5 58.3 32.1 58.3 109.2 0 23.1-17.6 45.6-38.1 71.6-41 52.3-97.3 123.8-29.9 247.4 7 12.9 23.5 17.7 36.8 11 13.3-6.8 18.4-22.7 11.4-35.6-51.2-93.9-14.2-141.1 25.1-191.1 24.2-30.8 49.2-62.6 49.2-103.4 0-113.1-86.4-159-100.7-159z"  horiz-adv-x="1024" />

    
    <glyph glyph-name="3Dgongnuan-svgqietu-01" unicode="&#59118;" d="M474.8 116.6c-1.3 0-2.7 0.1-4.1 0.3-106.3 17.6-183.4 108.7-183.4 216.6 0 121.1 98.5 219.5 219.5 219.5s219.5-98.5 219.5-219.5c0-13.7-11.1-24.7-24.7-24.7s-24.7 11.1-24.7 24.7c0 93.8-76.3 170.1-170.1 170.1s-170.1-76.3-170.1-170.1c0-83.6 59.7-154.1 142-167.8 13.5-2.2 22.6-15 20.4-28.5-1.9-12-12.4-20.6-24.3-20.6zM239.3 67.1c-6.3 0-12.7 2.4-17.5 7.2-9.7 9.7-9.7 25.3 0 35l63.7 63.7c9.7 9.7 25.3 9.7 35 0s9.7-25.3 0-35l-63.7-63.7c-4.8-4.8-11.2-7.2-17.5-7.2zM303 500.1c-6.3 0-12.7 2.4-17.5 7.2L221.8 571c-9.7 9.7-9.7 25.3 0 35s25.3 9.7 35 0l63.7-63.7c9.7-9.7 9.7-25.3 0-35-4.8-4.8-11.1-7.2-17.5-7.2zM685.3 509.8c-6.3 0-12.7 2.4-17.5 7.2-9.7 9.7-9.7 25.3 0 35l63.7 63.7c9.7 9.7 25.3 9.7 35 0s9.7-25.3 0-35L702.8 517c-4.9-4.8-11.2-7.2-17.5-7.2zM935.6 308.7h-143c-13.7 0-24.7 11.1-24.7 24.7s11.1 24.7 24.7 24.7h143.1c13.7 0 24.7-11.1 24.7-24.7s-11.1-24.7-24.8-24.7zM221.2 308.7H89.1c-13.7 0-24.7 11.1-24.7 24.7s11.1 24.7 24.7 24.7h132.1c13.7 0 24.7-11.1 24.7-24.7s-11-24.7-24.7-24.7zM506.9 594.4c-13.7 0-24.7 11.1-24.7 24.7V750c0 13.7 11.1 24.7 24.7 24.7 13.7 0 24.7-11.1 24.7-24.7v-130.8c0-13.7-11-24.8-24.7-24.8zM705.7 105.3c-1.9 2.4-4 4.7-6.4 6.8-6.2 5.5-6.2 15.1-0.4 21.1 9.6 9.9 14.5 23.3 14.5 39.9 0 20.2-7.2 36.6-21.4 48.8-14 11.7-32.8 17.7-55.9 17.7-23 0-41.8-6.6-55.6-19.7-11.3-10-19-22.8-23-38.3-2.7-10.8 5.4-21.3 16.6-21.3h0.3c8.3 0 15.4 5.9 17.1 14.1 0.3 1.4 0.6 2.6 0.8 3.4 2.5 8 6.3 14.4 11.6 19.3 7.4 7.2 18.3 10.8 32.6 10.8 13.9 0 24.5-3.4 31.7-10 7-6.4 10.4-15 10.4-26.4 0-11.5-3.5-20.1-10.5-26.2-7.2-6.1-17.9-9.2-31.9-9.2h-7.4c-8.1 0-14.7-6.6-14.7-14.7s6.6-14.7 14.7-14.7h8.3c14.8 0 26.2-3.4 34.1-10.1 8-6.8 11.8-16.1 11.8-28.5 0-12-4.1-22-12.3-30.2-9.2-8.6-21.1-12.8-36.2-12.8-12.9 0-24 3.6-32.9 10.8-7.4 6.1-12.2 14.1-14.6 24.3 0 0.1-0.1 0.9-0.2 2-1 8.9-8.5 15.7-17.4 15.7-10.6 0-18.8-9.4-17.4-19.9 0.1-0.5 0.1-0.8 0.1-0.9 4.1-19.1 13-34.4 26.6-45.7 14.8-11.7 33.6-17.6 55.8-17.6 24.7 0 45 7.2 60.5 21.3 15.4 14 23.2 32.2 23.2 54.1 0 14.3-4.3 26.5-12.5 36.1zM924 202.2C904.9 224 876.3 235 838.9 235h-71.5c-8.1 0-14.7-6.6-14.7-14.7v-207.5c0-8.1 6.6-14.7 14.7-14.7h69c36.9 0 65.7 11 85.7 32.7 19 20.8 28.6 49.6 28.6 85.7 0 36.8-9 65.6-26.7 85.7z m-136.1-5.7c0 3.8 3.1 6.8 6.8 6.8h40c28.3 0 49.3-7.3 62.4-21.8 12.4-14 18.7-35.8 18.7-65 0-28.3-6.8-50-20.2-64.6-14.1-14.7-35.6-22.2-63.7-22.2h-37.2c-3.8 0-6.8 3.1-6.8 6.8v160z"  horiz-adv-x="1024" />

    
    <glyph glyph-name="gongnuan-svgqietu-01" unicode="&#59119;" d="M744.4 385.9l-0.3 0.4c-0.1 0.1-0.1 0.2-0.2 0.2l-0.1 0.1C719.1 419.1 696 450 728 510.8c6.2 11.7 1.6 26.3-10.1 32.5-11.7 6.1-26.3 1.6-32.5-10.1-46.5-88.1-7.9-139 20.3-176.1 12.9-16.9 24-31.6 24-45.4 0-48.9-31.7-67.5-35.3-69.5-8.3-4.1-13.4-12.3-13.4-21.6 0-13.3 10.8-24.1 24.1-24.1 10.4 0 72.7 33.2 72.7 115.1 0 30-16.9 52.6-33.4 74.3zM533.3 510.6l0.2 0.3c6.2 11.7 1.6 26.3-10.1 32.5-11.7 6.1-26.3 1.6-32.5-10.1-46.5-88.2-7.9-139 20.3-176.2 12.9-17 24-31.6 24-45.5 0-49.1-31.7-67.6-35.3-69.5-8.3-4.1-13.4-12.4-13.4-21.6 0-13.3 10.8-24.1 24.1-24.1 10.4 0 72.7 33.2 72.7 115.2 0 30-17.2 52.7-33.8 74.6-24.7 32.7-48.1 63.6-16.2 124.4zM338.8 510.6l0.2 0.3c6.2 11.7 1.6 26.3-10.1 32.5-11.7 6.1-26.3 1.6-32.5-10.1-46.5-88.1-7.9-139 20.3-176.1 12.9-16.9 24-31.6 24-45.4 0-48.9-31.7-67.5-35.3-69.5-8.3-4.1-13.4-12.3-13.4-21.6 0-13.3 10.8-24.1 24.1-24.1 10.4 0 72.7 33.2 72.7 115.1 0 30-17.2 52.7-33.8 74.6-24.7 32.7-48.1 63.5-16.2 124.3zM90.2 321.8c3 0.9 6.1 1.4 9.4 1.2 15-0.6 26.6-13.3 26-28.3L118.4 127c-0.7-15-13.3-26.6-28.3-26-15 0.6-26.6 13.3-26 28.3l7.1 167.8c0.6 11.7 8.4 21.3 19 24.7zM924.8 684.9c3 0.9 6.1 1.4 9.4 1.2 15-0.6 26.6-13.3 26-28.3L953 490.1c-0.7-15-13.3-26.6-28.3-26-15 0.6-26.6 13.3-26 28.3l7.1 167.8c0.6 11.7 8.5 21.3 19 24.7zM197.5 58.3C133.2 121.9 89.8 202.1 72.2 290.4c-3 14.8 6.6 29.2 21.4 32.1s29.2-6.6 32.1-21.4c15.5-77.6 53.6-148.1 110.1-203.9 155.4-153.3 406.6-151.7 559.9 3.7 45.1 45.7 77.5 99.7 96.3 160.5 4.5 14.4 19.8 22.4 34.2 18 14.4-4.5 22.4-19.8 18-34.2-21.2-68.3-59.1-131.4-109.6-182.7-174.5-176.8-460.3-178.6-637.1-4.2zM90 487c-7.4 6.8-10.7 17.4-7.7 27.7 19.5 67.1 53.5 127.4 101.1 179.1C351.5 876.7 637 888.7 819.9 720.5c65.2-60 110.9-136.9 132.2-222.6 3.6-14.6-5.3-29.4-19.9-33.1-14.6-3.6-29.4 5.3-33.1 19.9-18.7 75.2-58.9 142.9-116.2 195.6C622.2 828.1 371.3 817.6 223.5 656.9c-41.8-45.5-71.7-98.5-88.8-157.4-4.2-14.5-19.3-22.8-33.8-18.6-4.2 1.2-7.9 3.3-10.9 6.1z"  horiz-adv-x="1024" />

    
    <glyph glyph-name="qiangjin-01" unicode="&#59116;" d="M496.86686613 447.22596587L437.48589867 726.5841994699999c-3.93326293 18.50371413 0.5240672 37.66113387 12.20249493 52.56395413 11.27848107 14.37185707 28.06932267 22.91139627 46.06276053 23.49338667 69.66923627 2.14315947 117.06009387-49.10373013 126.75671894-137.10704854 7.63483413-69.25274027-21.2909248-122.7089888-49.52160534-157.2339936-19.40152427-23.73197547-43.75548587-42.91421973-70.49119466-57.90806186l-5.62820694-3.1664704z m-2.351408 309.50451733c-4.5566272-0.96952427-7.4914048-3.89326827-8.93396906-5.74267413a18.05825707 18.05825707 0 0 1-3.47815147-14.9193696L519.8472192 502.01169067c24.94974293 26.2102624 64.23824427 95.88915307 57.3384832 158.5138208-4.9662272 45.0049728-22.8796768 98.27917547-80.02232427 96.51389546-0.9405632-0.02344533-1.82596053-0.13515413-2.64792-0.30892373zM448.35202133 370.37838612999997L169.5661248 311.12154026999997c-18.50371413-3.93464213-37.66113387 0.522688-52.56395413 12.20111573-14.37047787 11.27986027-22.91139627 28.07070187-23.49200747 46.06413973-2.14453867 69.66923627 49.10373013 117.05733653 137.10566933 126.7553408 62.86325653 6.93148053 112.7075776-16.264016 147.19810454-41.7212768 29.1326272-21.49641493 52.26330453-50.11738773 69.42788906-81.9958528l1.1101952-2.0466208z m-308.93218026-2.23004373c0.96952427-4.5580064 3.89464747-7.4900256 5.7426752-8.93396907a18.06377387 18.06377387 0 0 1 14.9207488-3.47677333l234.5215136 37.73146987c-26.2088832 24.95112213-96.35529707 64.2478976-158.9854816 57.3398624-45.0049728-4.9662272-98.28055467-22.8796768-96.51389654-80.02370347 0.02896213-0.9281504 0.14067093-1.814928 0.31444054-2.6368864zM527.14002987 320.75058879999995l59.37269226-279.33616747c3.93326293-18.50095573-0.522688-37.65975467-12.20249493-52.56119573-11.27848107-14.37185707-28.06794347-22.91415467-46.06276053-23.49200853-69.67061547-2.14453867-117.05871467 49.10373013-126.75533974 137.1056704-7.63483413 69.2182624 21.26610133 122.66071893 49.4885056 157.19124053 19.4332448 23.77334933 43.84099093 42.99007147 70.634624 57.9894304l5.52477334 3.1030304z m2.344512-309.4796928c4.555248 0.96676587 7.4914048 3.89051093 8.93396906 5.73991573a18.06377387 18.06377387 0 0 1 3.47815147 14.9207488l-38.0252224 234.14777174c-24.94974293-26.2102624-63.9555232-95.98293333-57.0599008-158.60898027 4.9676064-45.0022144 22.881056-98.27779627 80.02508267-96.51113813a13.97191147 13.97191147 0 0 1 2.64792 0.31168213zM575.9072544 397.67677867l278.5252416 59.2030592c18.50509333 3.93326293 37.66251307-0.5240672 52.56395413-12.20249387 14.37323627-11.27986027 22.91277547-28.07070187 23.49062827-46.06413973 2.14591787-69.67061547-49.1009728-117.05595733-137.10429013-126.75671894-56.59651413-6.23915947-102.6358304 11.9432192-136.42300374 34.20228907-34.54017493 22.7569344-61.71996267 55.05189547-81.05253013 91.61800427z m308.67290453 2.17487893c-0.96952427 4.555248-3.89188907 7.4900256-5.741296 8.93396907a18.04998293 18.04998293 0 0 1-14.9207488 3.47539413l-234.220864-38.3175968c26.2116416-24.94698453 96.05051093-63.6617696 158.6793152-56.7606304 45.0049728 4.96346987 98.28055467 22.8782976 96.51251734 80.01956587a14.455984 14.455984 0 0 1-0.30892374 2.64929813zM458.21138347 418.3512352L218.68778453 573.89855893c-15.8640704 10.3020608-26.25991147 27.00050133-28.53960426 45.79658987-2.18729173 18.1368672 3.64640533 36.0503168 15.95922986 49.18371947 47.7494304 50.7807456 117.4945184 48.05145813 186.57900587-7.31763414 54.3678496-43.57068267 71.71309867-101.8235264 76.16353387-146.19823893 3.06303573-30.49933973-0.593024-61.28553813-8.8967328-90.79190827l-1.7418336-6.21985173zM237.69763733 635.53991147c-2.53758933-3.90568107-2.54448533-8.04857067-2.25900586-10.37653334a18.06377387 18.06377387 0 0 1 8.09270293-13.00928213l192.19066453-138.81578453c-0.89091413 36.17581653-22.38043413 113.2288864-71.54208746 152.63185386-35.3345504 28.31066987-85.6712192 53.3155776-124.83008214 11.65912-0.6481888-0.67852907-1.19432213-1.38464107-1.652192-2.08937386zM478.24730453 329.70662400000003L323.01717973 90.67261440000004c-10.30344-15.8654496-27.00188053-26.25853227-45.79658986-28.53684587-18.1368672-2.18729173-36.0503168 3.64778453-49.18509867 15.95922987-50.7807456 47.7480512-48.05145813 117.4945184 7.3176352 186.57624747 39.5491552 49.35473173 91.19599147 68.19771093 133.586144 74.58443626 35.80069547 5.40065173 72.39438613 1.518416 107.0724736-8.8856992l2.23556053-0.66335893zM261.3758272 109.68246720000002c3.90430187-2.53896853 8.04857067-2.54448533 10.37653333-2.25762667a18.05549867 18.05549867 0 0 1 13.00928214 8.09270294l139.1522912 192.5106208c-36.17581653-0.89091413-113.56539307-22.7017696-152.96698134-71.87307734-28.312048-35.3359296-53.3155776-85.6725984-11.66049813-124.83284053a14.9772928 14.9772928 0 0 1 2.0893728-1.6397792zM569.0488672 350.32315732999996L808.5531584 194.78824533c15.8640704-10.30344 26.25991147-27.00050133 28.54098347-45.79521066 2.18591253-18.1368672-3.65054293-36.0503168-15.96060907-49.18372054-47.7508096-50.77936747-117.4945184-48.05145813-186.57762667 7.3190144-54.34440427 43.54447893-71.69930773 101.77387733-76.15939733 146.14445227-3.06993173 30.550368 0.60267733 61.40000533 8.94086507 90.95050773l1.71149333 6.0998688z m220.49443733-217.17488533c2.53758933 3.90430187 2.54448533 8.04719147 2.25762774 10.37515413a18.05274027 18.05274027 0 0 1-8.09270294 13.00790294L591.25277333 295.21747627c0.89229333-36.17719573 22.6452256-113.09649067 71.80825814-152.50221654 35.33179307-28.31066987 85.66984-53.3141984 124.83008213-11.6577408 0.6481888 0.67852907 1.19432213 1.38464107 1.65219093 2.09075307zM549.13568747 439.20359893L704.222384 678.01418987c10.3048192 15.8654496 27.00050133 26.25991147 45.79934827 28.53960426 18.1368672 2.18591253 36.0489376-3.64916373 49.18096106-15.96060906 50.77936747-47.746672 48.05283733-117.4945184-7.316256-186.57762667-35.60761707-44.43401493-81.02081067-64.130672-120.6499552-72.28129813-40.51868053-8.33267093-82.5723264-4.71798507-122.10079466 7.46933866z m216.7294272 219.80349654c-3.90706027 2.53483093-8.04857067 2.54172693-10.37653334 2.25624746a18.05963627 18.05963627 0 0 1-13.01066026-8.09270293L603.95313173 460.45866667c36.17719573 0.89091413 112.9378912 22.90312213 152.34361707 72.06339626 28.30929067 35.3331712 53.31695573 85.6712192 11.65911893 124.82870294a14.31531307 14.31531307 0 0 1-2.09075306 1.6563296z"  horiz-adv-x="1024" />

    
    <glyph glyph-name="dingshi" unicode="&#59070;" d="M512-59.42999999999995C267.495-59.42999999999995 68.57 139.495 68.57 384S267.495 827.4300000000001 512 827.4300000000001 955.43 628.505 955.43 384 756.505-59.42999999999995 512-59.42999999999995z m0 823.513c-209.577 0-380.083-170.505-380.083-380.083S302.423 3.91700000000003 512 3.91700000000003 892.083 174.42200000000003 892.083 384 721.578 764.083 512 764.083zM486.658 661.492v-280.316c0-5.467-4.432-9.851-9.898-9.851H300.063c-11.048 0-21.735-6.423-25.198-16.914-5.759-17.45 7.286-33.764 23.955-33.764h228.568c5.494 0 9.947 4.453 9.947 9.947V662.721c0 16.669-16.314 29.714-33.764 23.955-10.49-3.462-16.913-14.136-16.913-25.184z"  horiz-adv-x="1024" />

    
    <glyph glyph-name="zhongdifeng-01" unicode="&#59106;" d="M502.02 313.89l-93.68 366.15c-5.71 22.34-1.21 45.7 12.35 64.09 14.73 19.97 38.04 32.16 63.93 33.45C572.47 782 635.08 718.08 652 606.72 676.55 445.1 543.01 344.21 537.31 340l-35.29-26.11z m-36.48 380.78l70.35-274.95c30.89 35.23 69.98 97.48 57.72 178.13-8.66 57.07-34.33 124.31-106.07 120.75-8-0.4-15.22-3.96-19.33-9.51-3.13-4.25-4.03-9.1-2.67-14.42zM804.57-9.79c-29.65 0-62.3 6.65-96.96 20.2-152.25 59.54-172.85 225.64-173.65 232.68L529 286.7l363.94-101.94c22.2-6.22 40.18-21.8 49.33-42.74 9.93-22.74 8.83-49.02-3-72.08-26.9-52.43-74.61-79.73-134.7-79.73zM603.71 204.45c15.07-44.36 49.43-109.34 125.4-139.05 53.76-21.01 124.73-32.62 157.61 31.49 3.66 7.13 4.19 15.17 1.43 21.5-2.11 4.83-5.86 8.03-11.14 9.51l-273.3 76.55zM168.52-9.09c-2.83 0-5.65 0.16-8.49 0.47-24.66 2.77-46.86 16.85-60.93 38.64-47.72 73.93-23.69 160.06 64.27 230.39 127.69 102.1 281.82 36.87 288.34 34.03l40.25-17.5-270.26-264.2c-14.43-14.11-33.44-21.83-53.18-21.83z m162.71 267.7c-40.46 0-87.93-9.92-130.97-44.33-45.08-36.04-90.62-91.7-51.54-152.24 4.35-6.73 11.04-11.21 17.9-11.98 5.22-0.56 9.88 1.06 13.81 4.9l202.96 198.4c-14.92 2.97-32.74 5.25-52.16 5.25z"  horiz-adv-x="1024" />

    
    <glyph glyph-name="shangxiasaofeng-01" unicode="&#59107;" d="M424.91 594.35c94.51-72.36 172.18-78.5 311.07-78.5 13.52 0 27.64 0.06 42.41 0.12l52.34 0.14c14.72 0 26.67 11.95 26.67 26.67 0 14.72-11.95 26.67-26.67 26.67l-52.57-0.15c-163.93-0.66-231.58-0.96-320.84 67.41-11.68 8.9-28.42 6.72-37.38-4.97-8.94-11.7-6.72-28.43 4.97-37.39zM830.73 251.9l-52.34 0.14c-166.51 0.75-249.77 1.04-353.48-78.38-11.69-8.96-13.91-25.69-4.97-37.38 5.25-6.86 13.18-10.46 21.19-10.46a26.6 26.6 0 0 1 16.19 5.49c89.26 68.37 157.01 68.05 320.84 67.41l52.57-0.15c14.72 0 26.67 11.95 26.67 26.67s-11.95 26.66-26.67 26.66zM857.38 384c0 14.72-11.95 26.67-26.67 26.67h-461c-14.72 0-26.67-11.95-26.67-26.67 0-14.72 11.95-26.67 26.67-26.67h461c14.73 0 26.67 11.95 26.67 26.67zM349.8 103.5l-37.9-26.54c-60.24 90.92-91.97 196.48-91.97 307.03 0 110.55 31.72 216.11 91.97 307.03l37.9-26.53c0.16-0.11 0.38 0 0.39 0.19l5.66 134.71c0.01 0.18-0.17 0.3-0.34 0.24l-124.65-51.4c-0.18-0.07-0.21-0.32-0.05-0.43l37.37-26.17C201.64 621.72 166.6 505.6 166.6 384s35.04-237.72 101.59-337.64l-37.37-26.17c-0.16-0.11-0.13-0.35 0.05-0.43l124.65-51.4c0.17-0.07 0.35 0.06 0.34 0.24l-5.66 134.71c-0.02 0.19-0.24 0.3-0.4 0.19z"  horiz-adv-x="1024" />

    
    <glyph glyph-name="difeng-01" unicode="&#59108;" d="M512 404.3V747.39c0 22.49 9.91 43.66 27.18 58.1 16.67 13.92 38.3 19.71 59.37 15.93 81.54-14.72 123.97-86.03 113.5-190.75-14.93-149.37-156.7-208.72-162.72-211.17L512 404.3z m73.76 364.04c-5.54 0-9.67-2.67-11.81-4.46a21.453 21.453 0 0 1-7.73-16.49v-256.65c35.49 24.31 84.43 70.79 91.89 145.31 5.35 53.56-2.31 119.93-69.19 132-1.1 0.2-2.16 0.29-3.16 0.29zM438.18-54.55c-4.24 0-8.49 0.38-12.73 1.14-81.54 14.73-123.97 86.03-113.5 190.75 14.93 149.36 156.7 208.71 162.72 211.17l37.33 15.2v-343.09c0-22.49-9.91-43.66-27.18-58.1-13.32-11.13-29.8-17.07-46.64-17.07z m19.6 331.82c-35.49-24.31-84.43-70.79-91.89-145.32-5.35-53.56 2.31-119.93 69.19-132 7.08-1.3 12.43 2.05 14.96 4.17 4.91 4.1 7.73 10.12 7.73 16.49V277.27z"  horiz-adv-x="1024" />

    
    <glyph glyph-name="gaofeng-01" unicode="&#59109;" d="M518.77 409.07l-8.72 334.86c0 22.27 9.81 43.23 26.92 57.53 16.5 13.78 37.93 19.52 58.78 15.77 80.74-14.58 122.76-85.18 112.38-188.88-14.77-147.89-189.36-219.28-189.36-219.28z m64.32 355.61c-5.48 0-9.57-2.64-11.69-4.41a21.212 21.212 0 0 1-7.65-16.33L546.79 461c35.14 24.07 100.55 98.9 107.94 172.69 5.3 53.03-2.29 118.75-68.51 130.7-1.09 0.2-2.13 0.29-3.13 0.29zM493.66 402.12L199.3 562c-19.28 11.13-32.53 30.12-36.36 52.08-3.68 21.18 2.06 42.6 15.73 58.79 52.99 62.63 135.15 63.72 219.77 2.89 120.68-86.75 95.22-273.64 95.22-273.64z m-275.81 233.5c-2.74-4.75-2.5-9.61-2.02-12.33 1.09-6.25 4.85-11.64 18.88-25.97l230.82-143.41c-11.84 53.64-38.21 134.97-98.43 178.25-43.28 31.1-103.99 57.4-147.45 6.02-0.7-0.83-1.3-1.69-1.8-2.56zM487.04 377.51L201.4 202.53c-19.28-11.13-42.35-13.12-63.28-5.45-20.19 7.4-35.87 23.09-43.05 43.02-27.74 77.21 12.39 148.9 107.38 191.76 135.47 61.15 284.59-54.35 284.59-54.35zM146.92 255.4c2.74-4.75 7.08-6.97 9.67-7.92a21.23 21.23 0 0 1 17.97 1.54l253.78 129.84c-38.41 18.39-136.2 34.58-203.8 4.08-48.57-21.93-101.7-61.36-78.94-124.69 0.37-1.03 0.82-1.98 1.32-2.85zM504.92 358.93l8.72-334.86c0-22.27-9.81-43.23-26.92-57.53-16.5-13.78-37.93-19.52-58.78-15.77-80.74 14.58-122.76 85.18-112.38 188.88 14.78 147.89 189.36 219.28 189.36 219.28zM440.6 3.32c5.48 0 9.57 2.64 11.69 4.41a21.212 21.212 0 0 1 7.65 16.33l14.76 285.13c-35.14-24.07-98.37-101.1-105.75-174.89-5.3-53.03 2.29-118.75 68.51-130.7 1.1-0.19 2.15-0.28 3.14-0.28zM529.11 364.76l294.36-159.88c19.28-11.13 32.53-30.12 36.36-52.08 3.68-21.18-2.06-42.6-15.73-58.79-52.99-62.63-135.15-63.72-219.77-2.89-120.68 86.74-95.22 273.64-95.22 273.64z m275.81-233.51c2.74 4.75 2.5 9.61 2.02 12.33-1.09 6.25-4.85 11.64-10.32 14.79L557.27 313.95c3.28-42.46 38.18-135.96 98.39-179.25 43.28-31.1 103.99-57.4 147.45-6.02a18 18 0 0 1 1.81 2.57zM536.96 389.7L822.6 564.68c19.28 11.13 42.35 13.12 63.28 5.45 20.19-7.4 35.87-23.09 43.05-43.02 27.75-77.21-12.39-148.9-107.38-191.77-135.47-61.14-284.59 54.36-284.59 54.36z m340.12 122.1c-2.74 4.75-7.08 6.97-9.67 7.92a21.23 21.23 0 0 1-17.97-1.54l-253.48-130.2c38.41-18.39 135.9-34.22 203.5-3.72 48.57 21.93 101.7 61.36 78.94 124.69-0.37 1.04-0.82 1.99-1.32 2.85z"  horiz-adv-x="1024" />

    
    <glyph glyph-name="zhonggaofeng-01" unicode="&#59110;" d="M516.46 383.45L401.29 715.94c-6.71 20.49-3.95 42.56 7.58 60.56 12.51 19.54 33.5 32.35 57.58 35.14 81.88 9.51 145.99-45.88 166.7-149.16 29.08-145.01-85.57-251.65-90.63-255.94l-26.06-23.09z m-32.38 374.01c-3.62 0-7.38-0.22-11.27-0.67-7.44-0.86-13.96-4.63-17.44-10.07-2.66-4.15-3.2-8.73-1.61-13.61L532 446.19c26.66 34.77 63.6 129.94 47.22 204.44-10.92 49.64-36.3 106.83-95.14 106.83zM721.08 314.05c-81.32 0-144.29 38.1-148.1 40.47l-32.73 20 283.32 209.93c17.43 12.72 39.29 16.91 59.96 11.5 22.44-5.86 41.11-21.87 51.21-43.92 34.25-74.81 0.49-151.3-90.34-204.62-42.33-24.83-84.88-33.36-123.32-33.36z m-115.91 63.49c41.31-14.6 145.48-21.12 211.27 17.5 46.55 27.32 96.14 72.74 68.08 134-3.12 6.81-8.7 11.85-14.96 13.48-4.76 1.25-9.29 0.34-13.44-2.68l-250.95-162.3zM739.63-10.35c-42.26 0-87.91 19.89-132.17 59.18-114.34 101.48-78.69 253.89-77.11 260.33l9.02 39.93 287.1-207.22c17.46-12.64 28.2-32.12 29.45-53.46 1.36-23.17-8.09-45.86-25.94-62.28-26.53-24.4-57.4-36.48-90.35-36.48z m-178.76 298.3c-1.12-43.79 26.19-147.19 83.23-197.82 40.37-35.82 98.9-68.95 148.49-23.34 5.51 5.07 8.57 11.95 8.2 18.4-0.29 4.92-2.55 8.95-6.71 11.96l-233.21 190.8zM340.05-44.7c-13.55 0-27.21 3.57-39.69 10.59-71.7 40.4-89.33 122.13-47.19 218.65 61.19 140.1 217.15 153.29 223.76 153.79l37.77 4.04-105.35-337.35c-6.62-20.52-21.83-36.75-41.73-44.54a75.558 75.558 0 0 0-27.57-5.18z m124.86 346.24c-42-12.47-130.6-69.19-161.13-139.09-21.6-49.46-35.02-115.37 23.68-148.43 6.53-3.68 14.02-4.46 20.04-2.11 4.59 1.8 7.72 5.18 9.3 10.07l108.11 279.56zM152.7 360.69c-22.84 0-44.36 10.04-59.07 27.56-14.22 16.94-20.17 38.97-16.34 60.42C92.1 531.76 164.7 575.1 271.31 564.68c152.15-14.9 212.9-159.15 215.41-165.28l13.83-35.92-347.7-2.79h0.01-0.16z m86.78 150.38c-47.99 0-97.6-14.67-107.84-72.09-1.29-7.27 2.12-12.66 4.28-15.23a21.82 21.82 0 0 1 16.77-7.84h0.04l295.82-13.59c-24.83 36.09-106.7 99.97-182.62 107.4-8.57 0.84-17.48 1.35-26.45 1.35z"  horiz-adv-x="1024" />

    
    <glyph glyph-name="zhongfeng-01" unicode="&#59111;" d="M509.99 395.92v346.5c0 22.95 10.12 44.56 27.74 59.3 17.01 14.21 39.09 20.11 60.59 16.26 83.22-15.03 126.53-87.8 115.84-194.68-8.41-84.11-56.22-140.25-98.43-174.1-29.01-23.27-62.75-39.89-98.26-50.94l-7.48-2.34z m75.28 367.89c-5.65 0-9.87-2.73-12.05-4.56-5.01-4.19-7.89-10.33-7.89-16.83l-14.25-287.28c36.22 24.81 100.42 97.59 108.03 173.65 5.46 54.66-2.36 122.4-70.62 134.72-1.12 0.21-2.2 0.3-3.22 0.3zM499.96 383.89H154.17c-22.95 0-44.56 10.12-59.3 27.74-14.21 17.01-20.11 39.09-16.26 60.59 15.03 83.22 87.8 126.53 194.68 115.84 76.35-7.63 129.65-47.73 164.16-86.64 29.15-32.86 49.38-72.66 61.71-114.82l0.8-2.71z m-367.18 75.28c0-5.65 2.73-9.87 4.56-12.05 4.19-5.01 10.33-7.89 16.83-7.89L442 424.85C417.19 461.07 343.86 525.4 267.79 533c-54.66 5.46-122.4-2.36-134.72-70.62-0.2-1.11-0.29-2.19-0.29-3.21zM514.01 372.05v-346.47c0-22.95-10.12-44.56-27.74-59.3-17.01-14.21-39.09-20.11-60.59-16.26-83.22 15.03-126.53 87.8-115.84 194.68 8.4 84.07 56.18 140.2 98.38 174.06 29.06 23.31 62.87 39.96 98.45 51l7.34 2.29z m-75.28-367.86c5.65 0 9.87 2.73 12.05 4.56 5.01 4.19 7.89 10.33 7.89 16.83l13.94 287.46c-36.22-24.81-100.11-97.77-107.72-173.83-5.46-54.66 2.36-122.4 70.62-134.72 1.12-0.21 2.2-0.3 3.22-0.3zM524.36 384.11h345.47c22.95 0 44.56-10.12 59.3-27.74 14.21-17.01 20.11-39.09 16.26-60.59-15.03-83.22-87.8-126.53-194.68-115.84-68.74 6.87-118.79 40.06-153.27 75-35.25 35.72-59.36 80.9-73.08 129.17z m366.86-75.28c0 5.65-2.73 9.87-4.56 12.05-4.19 5.01-10.33 7.89-16.83 7.89l-287.62 13.61c24.81-36.22 97.93-99.78 173.99-107.39 54.66-5.46 122.4 2.36 134.72 70.62 0.21 1.12 0.3 2.2 0.3 3.22z"  horiz-adv-x="1024" />

    
    <glyph glyph-name="zidongfeng-01" unicode="&#59112;" d="M940.33 246.49l-40.29 11.73c8.86 34.2 13.35 69.45 13.35 105.22 0 188.18-126.62 352.95-305.26 403.09-16.32 4.58-33.1-5.97-36.44-22.58-3.04-15.12 6.24-29.8 21.08-33.99 153.35-43.26 262-184.84 262-346.52 0-30.2-3.72-59.95-11.05-88.82l-50.93 14.83c-8.92 2.6-16.54-6.89-12.06-15.04l41.77-131.35c2.77-5.05 9.12-6.9 14.17-4.13l105.76 88.38c8.15 4.49 6.83 16.58-2.1 19.18zM125.78 242.76c14.65 4.79 22.88 20.05 19.23 35.02-6.81 27.89-10.25 56.6-10.25 85.66 0 162.09 108.27 303.05 261.59 346.41l14.79-46.8c2.8-8.86 14.92-9.91 19.21-1.67l85.95 107.75c2.66 5.11 0.67 11.41-4.45 14.07L379.59 821.97c-8.25 4.29-17.56-3.54-14.76-12.4l13.85-43.82C201.27 714.77 76.15 551.31 76.15 363.44c0-33.92 4.04-67.45 12.03-100.04 4.04-16.48 21.48-25.91 37.6-20.64zM783.71 104.26l-0.03 0.02c-11.44 10.27-28.77 9.82-39.88-0.81-66.75-63.88-156.07-100.04-249.03-100.04-96.8 0-188.79 38.76-256.28 107.18l35.24 35.96c6.51 6.64 1.74 17.83-7.56 17.74l-135.5 25.22c-5.76-0.06-10.39-4.78-10.33-10.54l27.95-134.97c0.09-9.29 11.38-13.84 17.88-7.2l31.29 31.93c78.4-79.12 185.07-123.93 297.31-123.93 108.26 0 212.27 42.17 289.92 116.66 12.21 11.71 11.61 31.48-0.98 42.78zM441.04 519.63c-17.95-34.59-11.75-74.84 13.39-114.29 21.54-33.81 37.95-47.13 37.95-47.13s3.04 57.4 28.13 105.08c29.36 55.79 57.39 73.13 46.58 100.99-12.31 31.78-92.26 20.46-126.05-44.65zM491.6 354.64s48.19-31.34 76.94-76.9c33.64-53.32 34.64-86.26 64.17-90.84 33.67-5.22 63.84 69.68 24.35 131.5-20.98 32.84-58.94 47.59-105.67 45.55-40.06-1.76-59.79-9.31-59.79-9.31zM274.21 315.02c-21.35-26.55 28.42-90.13 101.7-86.84 38.93 1.75 70.68 27.24 92.28 68.74 18.51 35.57 21.84 56.43 21.84 56.43s-51.24-26.07-105.07-28.18c-62.99-2.47-92.03 13.14-110.75-10.15z"  horiz-adv-x="1024" />

    
    <glyph glyph-name="zuoyousaofeng-01" unicode="&#59113;" d="M265.26 292.32a26.43 26.43 0 0 1 16.13-5.49c7.98 0 15.87 3.59 21.09 10.42 79.11 103.28 78.77 186.4 78.08 351.99l-0.13 52.21c0 14.66-11.9 26.56-26.56 26.56s-26.56-11.9-26.56-26.56l0.15-52.43c0.67-163.08 0.96-230.58-67.13-319.49-8.93-11.63-6.72-28.3 4.93-37.21zM742.61 286.84c5.63 0 11.31 1.79 16.13 5.47 11.64 8.92 13.86 25.59 4.95 37.23-68.08 88.9-67.8 156.4-67.13 319.49l0.15 52.43c0 14.66-11.9 26.56-26.56 26.56s-26.56-11.9-26.56-26.56l-0.13-52.21c-0.69-165.59-1.03-248.71 78.05-351.99 5.23-6.84 13.12-10.42 21.1-10.42zM512 215.73c14.66 0 26.56 11.9 26.56 26.56V701.45c0 14.66-11.9 26.56-26.56 26.56s-26.56-11.9-26.56-26.56v-459.16c0-14.67 11.9-26.56 26.56-26.56zM925.74 228.47l-134.17-5.64a0.25 0.25 0 0 1-0.19-0.39l26.43-37.74c-90.56-60-195.7-91.6-305.81-91.6-110.11 0-215.25 31.6-305.81 91.6l26.43 37.74a0.25 0.25 0 0 1-0.19 0.39l-134.17 5.64c-0.18 0.01-0.3-0.17-0.24-0.34l51.19-124.15c0.07-0.18 0.32-0.21 0.43-0.05l26.06 37.22c99.52-66.28 215.18-101.18 336.3-101.18 121.11 0 236.77 34.9 336.3 101.18l26.06-37.22c0.11-0.16 0.35-0.13 0.43 0.05l51.19 124.15c0.06 0.17-0.06 0.35-0.24 0.34z"  horiz-adv-x="1024" />

    
    <glyph glyph-name="ziqingjie-01" unicode="&#59115;" d="M842.02 674.13l-51.03 16.36a47.542 47.542 0 0 0-26.4 28.67l-25.01 95.15c-0.9 3.43-5.75 3.46-6.83 0.05l-30.08-94.83a50.316 50.316 0 0 0-27.88-28.35l-51.86-15.65c-4.43-1.8-4.59-8.01-0.26-9.87l50.35-16.07c12.9-5.53 22.66-16.41 26.78-29.84l24.53-120.02c0.75-3.68 5.98-3.71 6.93-0.05l31.02 119.7c4.81 13.38 15.13 24.14 28.31 29.52l51.16 15.37c4.44 1.79 4.6 8 0.27 9.86zM203.69 252.88c3.78 0 7.6 1.23 10.79 3.77 0.78 0.62 79.79 62.28 224.72 74.98 9.53 0.83 16.58 9.23 15.74 18.77-0.83 9.52-9.21 16.6-18.77 15.74-156.11-13.68-239.86-79.65-243.35-82.45-7.45-5.98-8.63-16.85-2.67-24.31 3.42-4.27 8.46-6.5 13.54-6.5zM820.8 321.78c-7.28 6.16-18.2 5.26-24.39-2-0.39-0.45-36.6-42.21-107.68-67.37L641.1 374.02c58.05 24.86 82.52 55.65 83.65 57.1 5.85 7.51 4.5 18.29-2.97 24.19-7.47 5.9-18.34 4.62-24.29-2.82-0.23-0.28-20.59-25.19-69.04-46.19l-34.36 87.72c34.16 14.6 52.51 36.15 53.4 37.21 6.14 7.34 5.17 18.26-2.16 24.4s-18.26 5.18-24.4-2.16c-0.16-0.19-13.94-16.01-39.48-27.17l-28.86 73.67c-4.79 12.22-15.21 21.17-27.57 23.86l-280.74 99.33-4.14 1.02c-13.12 1.89-25.95-3.26-34.29-13.79-8.74-11.04-10.93-26.16-5.45-40.12l89.73-208.71c-52.12-14.6-80.06-30.7-81.62-31.61-8.24-4.82-11.01-15.4-6.2-23.65 3.21-5.52 9.02-8.6 14.99-8.6 2.95 0 5.94 0.76 8.68 2.34 0.47 0.27 47.97 27.37 134.96 41.68 9.44 1.56 15.83 10.47 14.28 19.9-1.56 9.44-10.5 15.85-19.9 14.28-7.78-1.28-15.26-2.66-22.44-4.1l-88.3 205.34 268.51-95L741.73-1.6l-268.94 95.15-31.16 79.53c22.31 3.35 46.25 5.74 71.85 6.81 20.55 0.86 39.17 4 57.17 7.03l4.71 0.79c9.44 1.58 15.81 10.5 14.23 19.94-1.58 9.43-10.5 15.78-19.94 14.23l-4.75-0.8c-16.96-2.85-34.49-5.81-52.88-6.58-219.77-9.23-323.67-108.15-327.99-112.36-6.84-6.66-6.97-17.59-0.33-24.44 3.39-3.5 7.91-5.26 12.43-5.26 4.33 0 8.68 1.62 12.04 4.86 0.77 0.74 62.66 59.02 190.12 87.67l34.97-89.27c4.79-12.23 15.21-21.18 27.57-23.86l280.74-99.33 4.14-1.02c1.78-0.26 3.56-0.38 5.33-0.38 11.2 0 21.75 5.09 28.96 14.19 8.74 11.03 10.93 26.15 5.72 39.46l-84.36 215.39c79.63 28.41 119.69 75.16 121.49 77.31 6.17 7.27 5.23 18.15-2.05 24.32z"  horiz-adv-x="1024" />

    
    <glyph glyph-name="jinduchaxun" unicode="&#59006;" d="M113.539 721.195h797.694c16.449 0 29.767 9.736 29.767 26.442s-13.318 30.244-29.767 30.244H113.539c-16.443 0-29.76-13.539-29.76-30.244s13.317-26.442 29.76-26.442z m154.787-661.202H113.539c-16.443 0-29.76-11.397-29.76-28.11 0-16.711 13.317-28.815 29.76-28.815h154.787c16.429 0 29.758 12.104 29.758 28.815 0 16.713-13.329 28.11-29.758 28.11z m11.906 364.887H113.539c-16.443 0-29.76-13.311-29.76-30.021 0-16.702 13.317-27.396 29.76-27.396h166.693c16.429 0 29.751 10.694 29.751 27.396-0.001 16.71-13.323 30.021-29.751 30.021z m552.841-248.513a30.27 30.27 0 0 1-4.02 4.677c44.445 46.339 73.119 108.602 76.002 178.18 2.993 72.655-22.002 142.146-70.436 195.68-48.42 53.53-114.474 84.696-185.958 87.746-147.677 6.281-272.697-110.584-278.904-260.547-3.009-72.658 22.002-142.142 70.429-195.682 48.435-53.534 114.465-84.69 185.958-87.755 3.811-0.158 7.61-0.233 11.388-0.233 53.672 0 103.971 16.275 146.174 44.339 0.262-0.418 0.429-0.873 0.712-1.284L886.09-5c5.795-8.351 14.996-12.816 24.36-12.816 5.918 0 11.911 1.804 17.115 5.538 13.436 9.625 16.651 28.492 7.175 42.157L833.073 176.367z m-204.418-17.253c-55.626 2.371-106.98 26.609-144.634 68.247-37.665 41.636-57.125 95.691-54.789 152.191 4.701 113.645 97.181 202.846 208.077 202.846 2.934 0 5.883-0.059 8.846-0.193 55.602-2.36 106.956-26.6 144.64-68.247 37.652-41.64 57.134-95.684 54.789-152.185-4.841-116.651-102.183-207.507-216.929-202.659z"  horiz-adv-x="1024" />

    
    <glyph glyph-name="shouhoudianhua" unicode="&#59007;" d="M772.347-63.097c-23.474 0-44.627 1.027-58.777 3.052-318.03 45.388-557.113 278.786-623.954 609.104C79.323 599.83 77.471 653.93 76.36 709.511a120.121 120.121 0 0 0 28.551 80.186c22.901 26.976 56.312 42.434 91.674 42.434 41.545 0 80.419-18.481 106.649-50.702l12.461-15.31a179.423 179.423 0 0 0 38.468-87.802l6.87-47.926c7.868-54.89-9.675-109.286-48.139-149.231l-7.013-7.29c-6.559-6.806-8.391-17.078-4.573-25.573 58.559-130.375 161.232-231.788 296.916-293.286 5.467-2.499 11.863-1.798 14.876 1.6 46.02 51.818 92.455 79.219 181.59 55.769l3.823-1.008c38.839-10.194 87.175-22.886 111.528-49.793 35.006-38.701 37.624-64.847 37.624-100.327v-4.129c0-40.498-21.059-77.569-56.337-99.161-14.046-8.613-43.452-17.869-60.5-19.054-19.376-1.343-39.674-2.005-58.481-2.005zM196.585 781.558a69.56 69.56 0 0 1-53.117-24.585 69.576 69.576 0 0 1-16.545-46.454c1.106-55.206 2.79-104.713 12.258-151.414 62.481-308.755 285.305-526.803 581.525-569.089 18.412-2.608 62.041-3.744 106.624-0.652 9.443 0.652 31.11 7.754 37.584 11.725 29.855 18.274 32.176 47.511 32.176 56.036v4.129c0 27.924-0.943 40.291-24.551 66.397-14.248 15.745-57.952 27.213-86.869 34.809l-3.852 1.008c-65.494 17.256-94.386 0.691-130.898-40.439h-0.01c-17.701-19.933-47.941-25.692-73.573-14.076-147.072 66.653-258.477 176.838-322.163 318.621-12.387 27.568-6.786 59.513 14.268 81.372l7.013 7.29c27.578 28.635 40.157 67.632 34.517 106.984l-6.87 47.916a128.913 128.913 0 0 1-27.628 63.059l-12.461 15.31c-16.583 20.368-41.158 32.053-67.428 32.053z"  horiz-adv-x="1024" />

    
    <glyph glyph-name="yuyue" unicode="&#59008;" d="M915.589 577.358C864.01 683.297 774.271 762.802 662.905 801.236c-111.373 38.426-231.016 31.151-336.917-20.444C220.078 729.184 140.617 639.4 102.205 527.99c-38.412-111.4-31.156-231.098 20.437-337.044C174.229 85 263.969 5.494 375.32-32.93c46.975-16.203 95.553-24.152 143.859-24.152 94.329 0 187.552 30.338 265.23 88.746 12.174 9.143 14.622 26.433 5.464 38.613-9.137 12.161-26.406 14.63-38.573 5.471-102.796-77.273-236.607-98.409-358.005-56.546C295.86 52.826 217.328 122.397 172.2 215.096c-45.156 92.701-51.488 197.441-17.891 294.919 33.606 97.486 103.153 176.039 195.81 221.192 92.678 45.145 197.369 51.502 294.811 17.891 97.443-33.623 175.973-103.194 221.103-195.895 45.128-92.701 51.488-197.441 17.891-294.918-4.976-14.401 2.678-30.091 17.064-35.059 14.434-4.984 30.072 2.677 35.039 17.078 38.404 111.407 31.156 231.099-20.438 337.054z m-418.401 38.866c-15.225 0-27.567-12.348-27.567-27.576v-211.021c0-9.266 10.166-17.909 17.884-23.007l231.527-152.964c4.688-3.083 9.955-4.568 15.168-4.568 8.956 0 17.743 4.354 23.033 12.39 8.39 12.703 4.897 29.803-7.808 38.193l-224.684 144.79V588.648c0 15.228-12.32 27.576-27.553 27.576zM861.03 175.029c-18.261 0-33.074-14.81-33.074-33.082 0-18.281 14.813-33.102 33.074-33.102 18.268 0 33.066 14.821 33.066 33.102 0 18.272-14.798 33.082-33.066 33.082z"  horiz-adv-x="1024" />

    
    <glyph glyph-name="uncheck" unicode="&#59105;" d="M945.80224 384.38912c34.14016 0 62.06464-27.9296 62.83776-62.05952v-249.79968c0-102.4-83.00544-185.40032-185.40544-185.40032H200.29952c-102.4 0-185.40544 83.00032-185.40544 185.40032V695.46496c0 102.4 83.00544 185.40544 185.40544 185.40544h497.25952c34.13504 0 62.05952-27.9296 62.05952-62.05952s-27.92448-62.05952-62.05952-62.05952H200.29952c-34.13504 0-61.2864-27.9296-61.2864-61.2864v-622.1568c0-34.13504 27.9296-61.2864 61.2864-61.2864h622.16192c34.12992 0 61.28128 27.92448 61.28128 61.2864v249.02144c-0.00512 34.12992 27.9296 62.05952 62.05952 62.05952z"  horiz-adv-x="1024" />

    
    <glyph glyph-name="check" unicode="&#58911;" d="M945.803636 384.387879c34.133333 0 62.060606-27.927273 62.836364-62.060606v-249.79394c0-102.4-83.006061-185.406061-185.406061-185.40606H200.300606c-102.4 0-185.406061 83.006061-185.406061 185.40606v622.933334c0 102.4 83.006061 185.406061 185.406061 185.40606h497.260606c34.133333 0 62.060606-27.927273 62.060606-62.060606s-27.927273-62.060606-62.060606-62.060606H200.300606c-34.133333 0-61.284848-27.927273-61.284848-61.284848v-622.157576c0-34.133333 27.927273-61.284848 61.284848-61.284849h622.157576c34.133333 0 61.284848 27.927273 61.284848 61.284849v249.018182c0 34.133333 27.927273 62.060606 62.060606 62.060606z m-607.418181 137.309091l172.993939-173.769697 360.727273 359.951515c24.048485 24.048485 63.612121 24.048485 87.660606 0 24.048485-24.048485 24.048485-63.612121 0-87.660606l-403.39394-403.39394c-12.412121-11.636364-27.927273-17.842424-44.218181-17.842424s-31.806061 5.430303-44.218182 17.842424l-217.212122 217.212122c-24.048485 24.048485-24.048485 63.612121 0 87.660606 24.048485 24.048485 63.612121 24.048485 87.660607 0z"  horiz-adv-x="1024" />

    
    <glyph glyph-name="info" unicode="&#58895;" d="M512-128c-281.6 0-512 230.4-512 512s230.4 512 512 512 512-230.4 512-512-230.4-512-512-512z m0 938.666667c-234.666667 0-426.666667-192-426.666667-426.666667s192-426.666667 426.666667-426.666667 426.666667 192 426.666667 426.666667-192 426.666667-426.666667 426.666667z m0-725.333334c-25.6 0-42.666667 17.066667-42.666667 42.666667v298.666667c0 25.6 17.066667 42.666667 42.666667 42.666666s42.666667-17.066667 42.666667-42.666666v-298.666667c0-21.333333-17.066667-42.666667-42.666667-42.666667z m0 567.466667c25.6 0 46.933333-21.333333 46.933333-46.933333s-21.333333-46.933333-46.933333-46.933334-46.933333 21.333333-46.933333 46.933334 21.333333 46.933333 46.933333 46.933333z"  horiz-adv-x="1024" />

    
    <glyph glyph-name="warning" unicode="&#58894;" d="M512 896C230.4 896 0 665.6 0 384s230.4-512 512-512 512 230.4 512 512S793.6 896 512 896z m0-960C265.6-64 64 137.60000000000002 64 384S265.6 832 512 832s448-201.6 448-448-201.6-448-448-448zM512 96m-64 0a64 64 0 1 1 128 0 64 64 0 1 1-128 0ZM553.6 224h-83.2L448 736h128z"  horiz-adv-x="1024" />

    
    <glyph glyph-name="ban" unicode="&#58896;" d="M512 849.7090000000001c-256.933 0-465.208-208.276-465.208-465.209 0-256.932 208.276-465.209 465.208-465.209S977.209 127.56799999999998 977.209 384.5c0 256.933-208.277 465.209-465.209 465.209z m0-860.636c-218.384 0-395.428 177.042-395.428 395.427 0 218.385 177.044 395.428 395.428 395.428 218.385 0 395.428-177.043 395.428-395.428S730.385-10.927000000000021 512-10.927000000000021zM732.973 419.392H291.025c-19.262 0-34.89-15.617-34.89-34.891 0-19.285 15.628-34.902 34.89-34.902h441.948c19.264 0 34.893 15.617 34.893 34.902-0.001 19.273-15.63 34.891-34.893 34.891z"  horiz-adv-x="1024" />

    
    <glyph glyph-name="success" unicode="&#58946;" d="M699.904 473.088c13.312-13.312 13.312-34.816 0-48.128l-218.112-218.112c-6.656-6.656-15.36-10.24-24.064-10.24-8.704 0-17.408 3.584-24.064 10.24l-109.056 109.056a33.9968 33.9968 0 0 0 0 48.128c13.312 13.312 34.816 13.312 48.128 0l84.992-84.992 194.048 194.048c12.8 13.312 34.816 13.312 48.128 0zM1024 384c0-282.624-229.376-512-512-512S0 101.37599999999998 0 384 229.376 896 512 896s512-229.376 512-512z m-68.096 0c0 244.736-199.168 443.904-443.904 443.904-244.736 0-443.904-199.168-443.904-443.904s199.168-443.904 443.904-443.904c244.736 0 443.904 199.168 443.904 443.904z"  horiz-adv-x="1024" />

    
    <glyph glyph-name="queding" unicode="&#58889;" d="M512 896C230.4 896 0 665.6 0 384s230.4-512 512-512 512 230.4 512 512S793.6 896 512 896z m0-960C265.6-64 64 137.6 64 384S265.6 832 512 832s448-201.6 448-448-201.6-448-448-448zM761.6 595.2l-342.4-272-156.8 137.6L217.6 416l211.2-243.2 16 16 60.8 60.8 300.8 300.8z"  horiz-adv-x="1024" />

    
    <glyph glyph-name="bianji" unicode="&#58902;" d="M943.4 691l-126 123.4c-10.3 10.7-24.6 16.8-39.4 16.8-14.9 0-29.1-6.1-39.5-16.8l-92.9-92.5-39.9-39-330.1-331.3c-7.8-8.3-13.1-18.6-15.2-29.7L219 119.3c-1.4-7.3 0.9-14.8 6.1-20.1 5.3-5.2 12.8-7.5 20.1-6.1l203.9 39.6c11.3 1.8 21.7 7.1 29.8 15.2l464.5 464c10.5 10.5 16.4 24.7 16.4 39.6 0 14.8-5.9 29-16.4 39.5zM284.5 157.4l27.1 134.7 108.4-108-135.5-26.7z m181.6 58L341.4 338.5 645.6 644l126.2-124.6-305.7-304z m345.4 343.8l-125.1 124 92.9 92.8 124.8-124.6-92.6-92.2zM959.8 319.5c0 15.4-13.1 28.1-28.6 28.1-15.5 0-28-12.5-28-28v-326.9h-783V775.3h412.1c15.1 0.9 27.1 12.9 28 28-0.9 15.1-12.9 27.1-28 28H120.2c-30.8-0.2-55.8-25.1-56-55.9v-782.5c0-30.9 25.1-55.9 56-55.9h783.6c14.8 0 29.1 5.9 39.6 16.4 10.5 10.5 16.4 24.7 16.4 39.5V319.5z"  horiz-adv-x="1024" />

    
    <glyph glyph-name="tianjia" unicode="&#58933;" d="M512 832C264.55 832 64 631.45 64 384s200.55-448.05 448-448.05 448.05 200.6 448.05 448S759.45 832 512 832z m0-816c-203.26 0-368 164.78-368 368s164.74 368 368 368 368-164.74 368-368-164.74-368-368-368zM728 428.91H547.1V600a40 40 0 1 1-80 0v-171.09H296a40 40 0 1 1 0-80h171.09V168a40 40 0 1 1 80 0V348.9H728a40 40 0 1 1 0 80z"  horiz-adv-x="1024" />

    
    <glyph glyph-name="xiangshang" unicode="&#58886;" d="M184.82 243.78h654.36v-23.37H184.82v23.37zM208.19 267.15h607.62v-23.37H208.19v23.37zM231.56 290.52h560.88v-23.37H231.56v23.37zM254.93 313.89h514.14v-23.37H254.93v23.37zM278.3 337.26h467.4v-23.37H278.3v23.37zM301.67 360.63h420.66v-23.37H301.67v23.37zM325.04 384h373.92v-23.37H325.04V384zM348.41 407.37h327.18V384H348.41v23.37zM371.78 430.74h280.44v-23.37H371.78v23.37zM395.15 454.11h233.7v-23.37h-233.7v23.37zM418.52 477.48h186.96v-23.37H418.52v23.37zM441.89 500.85h140.22v-23.37H441.89v23.37zM465.26 524.22h93.48v-23.37h-93.48v23.37zM488.63 547.59h46.74v-23.37h-46.74v23.37z"  horiz-adv-x="1024" />

    
    <glyph glyph-name="inherit" unicode="&#59271;" d="M128 832h256a64 64 0 0 0 64-64v-256a64 64 0 0 0-64-64H128a64 64 0 0 0-64 64V768a64 64 0 0 0 64 64z m32-64a32 32 0 0 1-32-32v-192a32 32 0 0 1 32-32h192a32 32 0 0 1 32 32V736a32 32 0 0 1-32 32H160z m288-576h128a64 64 0 0 0 64-64v-128a64 64 0 0 0-64-64h-128a64 64 0 0 0-64 64v128a64 64 0 0 0 64 64z m32-64a32 32 0 0 1-32-32v-64a32 32 0 0 1 32-32h64a32 32 0 0 1 32 32v64a32 32 0 0 1-32 32h-64zM128 192h128a64 64 0 0 0 64-64v-128a64 64 0 0 0-64-64H128a64 64 0 0 0-64 64v128a64 64 0 0 0 64 64z m32-64a32 32 0 0 1-32-32v-64a32 32 0 0 1 32-32h64a32 32 0 0 1 32 32v64a32 32 0 0 1-32 32H160z m608 64h128a64 64 0 0 0 64-64v-128a64 64 0 0 0-64-64h-128a64 64 0 0 0-64 64v128a64 64 0 0 0 64 64z m128 512a32 32 0 0 0 32-32v-384a32 32 0 0 0-64 0V640h-230.4l42.272-42.272a32 32 0 0 0-45.248-45.28L540.16 642.976a31.936 31.936 0 0 0-9.28 25.376 31.936 31.936 0 0 0 9.28 25.376l90.496 90.496a32 32 0 1 0 45.248-45.248L640.896 704H896z m-96-576a32 32 0 0 1-32-32v-64a32 32 0 0 1 32-32h64a32 32 0 0 1 32 32v64a32 32 0 0 1-32 32h-64z"  horiz-adv-x="1024" />

    
    <glyph glyph-name="zhimian" unicode="&#59090;" d="M463.096-21.233c-169.569-0.01-329.759 95.516-396.943 247.128-11.866 26.774-8.135 55.688 9.511 73.66 15.371 15.652 37.873 19.376 60.189 9.967 123.484-52.034 257.963-31.205 350.935 54.394 94.383 86.903 124.286 219.557 79.988 354.851-6.517 19.914-0.294 41.132 16.245 55.39 18.637 16.07 45.505 19.675 66.877 8.971 160.753-80.531 251.198-246.849 236.041-434.067a397.68 397.68 0 0 0-9.118-58.237c-3.204-13.701-16.907-22.234-30.625-19.018-13.706 3.206-22.221 16.917-19.015 30.627a346.053 346.053 0 0 1 7.943 50.75c13.447 166.06-66.277 313.341-208.057 384.362-1.952 0.976-4.715 0.956-7.398-0.06-2.885-1.085-4.346-2.818-4.553-3.326 50.795-154.33 15.689-306.938-93.798-407.751-107.845-99.289-263.136-123.783-405.269-63.863-3.077 1.294-4.438 1.065-4.453 1.075-0.963-1.035-2.84-8.035 1.165-17.076 70.882-159.956 260.475-248.631 441.022-206.345 13.701 3.216 27.421-5.297 30.635-18.998 3.211-13.701-5.294-27.421-19-30.627a448.455 448.455 0 0 0-102.322-11.807zM813.814 46.578l-11.687 30.714h-99.494l-11.687-31.386c-4.554-12.236-8.45-20.494-11.687-24.788-3.224-4.28-8.505-6.42-15.858-6.42-6.228 0-11.742 2.277-16.516 6.845-4.787 4.554-7.188 9.74-7.188 15.515 0 3.347 0.562 6.79 1.674 10.357 1.111 3.567 2.949 8.519 5.514 14.856l62.593 158.918c1.783 4.568 3.923 10.041 6.434 16.447 2.497 6.392 5.172 11.715 8.011 15.94 2.84 4.225 6.557 7.654 11.18 10.275 4.623 2.606 10.329 3.923 17.12 3.923 6.886 0 12.648-1.317 17.271-3.923 4.623-2.62 8.354-5.995 11.18-10.11a70.54 70.54 0 0 0 7.188-13.265c1.948-4.733 4.417-11.043 7.421-18.944l63.938-157.931c5.007-12.017 7.517-20.755 7.517-26.201 0-5.679-2.373-10.878-7.092-15.611-4.733-4.733-10.439-7.092-17.12-7.092-3.896 0-7.229 0.7-10.014 2.085a20.347 20.347 0 0 0-7.01 5.679c-1.893 2.387-3.923 6.063-6.091 11.015a703.82 703.82 0 0 0-5.597 13.102z m-98.163 67.943h73.129l-36.9 101.003-36.229-101.003zM905.132 44.904V237.719c0 10.014 2.277 17.531 6.845 22.538 4.568 5.007 10.467 7.517 17.696 7.517 7.449 0 13.498-2.483 18.107-7.435 4.623-4.952 6.927-12.497 6.927-22.62v-192.815c0-10.124-2.305-17.696-6.927-22.703-4.609-5.007-10.659-7.504-18.107-7.504-7.119 0-12.991 2.524-17.613 7.586-4.623 5.076-6.928 12.607-6.928 22.621z"  horiz-adv-x="1024" />

    
    <glyph glyph-name="zidongqingjie1" unicode="&#59091;" d="M780.943 29.47199999999998h-140.65c-14.8 0-26.792 11.994-26.792 26.792 0 14.8 11.992 26.792 26.792 26.792h140.651c65 0 117.882 52.879 117.882 117.88V565.2919999999999c0 65-52.882 117.882-117.882 117.882H546.712c-11.342 0-21.664 6.236-26.916 16.3-5.264 10.054-4.508 22.095 1.958 31.42l2.303 3.312 71.13 55.775c11.669 9.131 28.508 7.083 37.623-4.553 9.127-11.641 7.086-28.479-4.553-37.611l-14.117-11.069h166.804c94.546 0 171.465-76.914 171.465-171.456v-364.357c-0.001-94.542-76.92-171.463-171.466-171.463zM412.309-27.687000000000012c-7.957 0-15.815 3.517-21.1 10.254-9.136 11.636-7.095 28.489 4.541 37.613l14.12 11.071H243.052c-94.542 0-171.461 76.919-171.461 171.463V567.071c0 94.541 76.919 171.467 171.461 171.467h140.655c14.795 0 26.789-11.992 26.789-26.792 0-14.798-11.994-26.796-26.789-26.796H243.052c-64.998 0-117.878-52.882-117.878-117.88v-364.357c0-65 52.879-117.88 117.878-117.88h234.236a30.301 30.301 0 0 0 26.956-16.358c5.252-10.087 4.459-22.135-2.062-31.448l-2.278-3.253-71.084-55.749a26.66 26.66 0 0 0-16.511-5.712zM498.082 448.919l71.605-23.873-70.367-30.53-37.691-138.885-39.956 137.647-71.603 28.265 70.365 26.137 37.691 111.795zM646.432 326.34000000000003l48.936-16.316-48.088-20.866-25.761-94.916-27.305 94.071-48.938 19.317 48.091 17.865 25.758 76.401z"  horiz-adv-x="1024" />

    
    <glyph glyph-name="lianggan" unicode="&#59092;" d="M445.103 153.44a20.403 20.403 0 0 0-15.093 6.7c-3.691 4.043-5.572 9.286-5.33 14.758 0.257 5.472 2.608 10.501 6.641 14.187l43.867 40.088 0.955 111.879-99.192-58.49-15.235-56.532c-2.266-8.943-10.632-15.43-19.895-15.43-1.667 0-3.321 0.214-4.931 0.629-5.302 1.343-9.748 4.672-12.556 9.401-2.779 4.686-3.563 10.201-2.223 15.501l11.287 44.589-45.962 14.672c-5.202 1.657-9.449 5.258-11.957 10.115-2.523 4.872-2.993 10.415-1.34 15.615 1.653 5.215 5.23 9.486 10.09 12.015a20.318 20.318 0 0 0 9.349 2.286c2.109 0 4.219-0.329 6.257-0.971l53.601-17.101 105.791 61.304-100.147 57.79a21.249 21.249 0 0 0-2.523 1.729l-56.722-16.73a20.141 20.141 0 0 0-6.157-0.957c-8.836 0-16.874 5.872-19.539 14.287-3.406 10.744 2.551 22.301 13.297 25.759l45.99 14.644-11.33 44.603a20.628 20.628 0 0 0 2.238 15.53c2.808 4.7 7.254 8.029 12.542 9.386a21.152 21.152 0 0 0 5.145 0.657c9.278 0 17.387-6.358 19.71-15.472l14.223-56.075 3.492-1.814 96.698-55.775V536.78l-0.926 1.886-44.138 40.331c-8.309 7.629-8.907 20.616-1.34 28.959 3.691 4.057 8.722 6.429 14.166 6.672h0.114c6.014 0 10.874-1.886 14.622-5.315l35.658-32.588 32.864 32.102c3.748 3.657 8.808 5.672 14.637 5.815 5.344-0.071 10.447-2.272 14.28-6.186 7.853-8.086 7.696-21.087-0.371-28.973l-38.28-37.388c-0.527-4.015-0.399-5.272-0.399-6.6v-122.751l107.187 63.247 12.584 53.232c2.024 9.315 10.461 16.058 20.052 16.058 1.439 0 2.879-0.143 4.304-0.443 5.316-1.172 9.876-4.343 12.841-8.958 2.936-4.629 3.919-10.115 2.751-15.43l-10.332-47.26 44.18-12.487c5.259-1.472 9.62-4.915 12.285-9.701 2.679-4.786 3.335-10.315 1.853-15.572-2.437-8.658-10.774-14.93-19.838-14.93a20.24 20.24 0 0 0-5.387 0.743l-57.933 16.387-101.059-58.575 102.84-59.347 56.152 14.958a20.204 20.204 0 0 0 5.587 0.786c3.492 0 6.841-0.886 9.948-2.643 4.76-2.672 8.195-7.043 9.691-12.344 3.064-10.844-3.264-22.187-14.123-25.273l-44.195-12.487 10.332-47.217c1.169-5.343 0.185-10.829-2.765-15.458-2.95-4.615-7.511-7.801-12.841-8.958a20.205 20.205 0 0 0-4.318-0.471c-9.406 0-18.014 6.915-20.024 16.101l-12.114 55.347-107.658 63.247v-117.422l38.907-39.26c8.081-7.886 8.252-20.887 0.385-28.959-3.876-4-9.064-6.2-14.637-6.2-5.373 0-10.447 2.057-14.28 5.8l-32.879 32.116-35.644-32.559a20.289 20.289 0 0 0-13.78-5.372zM953.639 357.517c-25.853-95.402-66.978-180.573-128.679-249.244-48.973-54.506-109.79-97.629-178.798-122.573-48.548-17.415-100.089-26.184-151.638-26.184-127.286 0-245.395 53.414-323.835 146.588-57.431 67.955-92.655 154.602-99.759 243.326-8.882 113.354 26.645 223.444 100.056 309.794 73.41 86.352 176.125 138.873 289.204 148.072 11.245 0.891 22.201 1.188 33.446 1.188 154.221 0 296.308-83.977 371.2-218.992 5.326-9.793 1.778-21.958-7.697-27.301-3.259-1.78-6.511-2.67-9.771-2.67-7.4 0-14.208 3.858-17.756 10.385-67.788 122.256-196.556 198.22-335.976 198.22-10.06 0-20.127-0.592-30.194-1.186-102.419-8.308-195.371-55.787-261.67-134.126-66.603-78.042-98.87-177.448-90.581-280.12 6.511-82.789 39.661-160.237 95.611-224.333 58.017-66.766 150.665-113.354 247.173-124.925 13.904-1.483 28.112-2.374 42.328-2.374 89.389 0 180.563 34.421 250.128 94.362 30.258 26.071 57.154 56.525 79.191 89.863 22.865 34.59 41.117 71.063 50.615 111.831 2.059 8.838 7.37 28.424-7.537 28.424 0 0-85.321-1.161-88.92-1.161-12.48 0-13.816 13.65-8.289 21.366 28.895 40.344 112.098 161.064 112.098 161.064 4.209 5.533 12.804 8.137 19.094 4.834 2.481-1.303 4.536-3.338 6.096-5.67 2.538-3.793 2.622-8.069 0.966-12.257-1.578-3.991-53.092-96.478-55.04-103.928-1.778-7.121 2.619-12.875 8.933-12.875 5.523 0 80.527 0.186 80.527 0.186 8.882-1.187 11.808-10.972 9.474-19.584z"  horiz-adv-x="1024" />

    
    <glyph glyph-name="-" unicode="&#59089;" d="M333.55776 366.03904v48.79872h339.15904v-48.79872H333.55776z"  horiz-adv-x="1024" />

    
    <glyph glyph-name="1" unicode="&#59088;" d="M501.91872 541.7216c-35.79904-32.55808-78.91968-58.56256-129.32096-78.08V514.87744c74.79808 34.16064 122.79808 77.24032 143.95904 129.32096h36.59776v-495.31904H501.91872V541.7216z"  horiz-adv-x="1024" />

    
    <glyph glyph-name="01" unicode="&#59086;" d="M238.83776 141.55776c-108.99968 1.6384-163.4816 84.56192-163.4816 248.87808 1.60256 164.28032 55.28064 248.87808 161.03936 253.76256 105.72288-3.2768 159.40608-87.83872 161.04448-253.75744-1.6384-162.68288-54.51776-245.60128-158.60224-248.8832z m-4.87936 458.72128c-66.71872-4.87936-100.87936-74.83904-102.4768-209.83808 0-139.91936 34.95936-209.03936 104.91904-207.40096 69.91872-1.6384 104.91904 67.4816 104.91904 207.40096 0 141.5168-35.79904 211.44064-107.36128 209.83808zM490.15808 151.3216v70.7584h75.63776v-70.7584H490.15808zM826.88 541.7216c-35.79904-32.55808-78.91968-58.56256-129.32096-78.08V514.87744c74.79808 34.16064 122.79808 77.24032 143.95904 129.32096h36.59776v-495.31904H826.88V541.7216z"  horiz-adv-x="1024" />

    
    <glyph glyph-name="05" unicode="&#59087;" d="M238.83776 141.55776c-108.99968 1.6384-163.4816 84.56192-163.4816 248.87808 1.60256 164.28032 55.28064 248.87808 161.03936 253.76256 105.72288-3.2768 159.40608-87.83872 161.04448-253.75744-1.6384-162.68288-54.51776-245.60128-158.60224-248.8832z m-4.87936 458.72128c-66.71872-4.87936-100.87936-74.83904-102.4768-209.83808 0-139.91936 34.95936-209.03936 104.91904-207.40096 69.91872-1.6384 104.91904 67.4816 104.91904 207.40096 0 141.5168-35.79904 211.44064-107.36128 209.83808zM490.15808 151.3216v70.7584h75.63776v-70.7584H490.15808zM822.00064 473.40032c94.32064-4.87936 144.75776-58.56256 151.28064-161.03936-3.28192-110.63808-56.12032-167.52128-158.60224-170.79808-92.71808 0-148.03968 43.91936-165.91872 131.75808l53.67808 14.63808c9.75872-68.32128 45.52192-103.3216 107.36128-104.91904 69.91872 3.24096 106.5216 44.71808 109.7984 124.4416-3.28192 74.79808-39.04 113.83808-107.36128 117.12-50.44224-1.6384-86.24128-19.52256-107.36128-53.67808l-36.59776 7.3216 29.28128 256.19968h251.32032v-48.79872h-209.83808l-14.63808-148.8384c29.27616 24.39168 61.7984 36.59264 97.59744 36.59264z"  horiz-adv-x="1024" />

    
    <glyph glyph-name="waichu" unicode="&#59079;" d="M881.7 432.3L545.9 735.1c-19 18.2-48.7 18.2-67.2 0.4L141.9 431.9c-9.3-8.9-12.2-22.5-7.4-34.6 4.7-11.8 15.8-19.4 28.3-19.4h68.6v-301.5c0-31.5 28.1-57.1 62.6-57.1h440.4c34.5 0 62.6 25.6 62.6 57.1V377.9h64.2c12.5 0 23.6 7.6 28.3 19.4 4.9 12 2 25.6-7.8 35zM607.8 59.700000000000045H416.2V368.5c0 3.4 2.8 6.2 6.2 6.2h179.2c3.4 0 6.2-2.8 6.2-6.2v-308.8z m170.7 358.7c-12.2 0-22.1-9.9-22.1-22.2v-319.9c0-9-10.1-16.6-22.1-16.6h-86.8V368.5c0 25.4-20.6 46-46 46H422.4c-25.4 0-46-20.6-46-46v-308.7H294c-12 0-22.1 7.6-22.1 16.6V396.2c0 12.2-9.9 22.2-22.1 22.2h-62.5l318.8 287.5c3.4 3.3 8.2 3.3 12.1-0.4l318.4-287h-58.1zM554.5 249.60000000000002c-15.8 0-28.6-12.8-28.6-28.6s12.8-28.5 28.6-28.5S583 205.29999999999995 583 221c0.1 15.8-12.7 28.6-28.5 28.6z"  horiz-adv-x="1024" />

    
    <glyph glyph-name="jingyin" unicode="&#59078;" d="M512 788.3c-247.07 0-448.09-201.02-448.09-448.09 0-141.95 31.07-242.87 103.88-337.47 11.45-14.88 29.21-23.04 47.3-23.03 8.43 0 16.94 1.77 24.9 5.47l45 20.92c57.39 25.72 83.17 93.33 57.46 150.71l-43 96.02c-12.45 27.8-34.99 49.09-63.46 59.94-28.47 10.86-59.46 9.99-87.26-2.49l-32.39-14.51c-0.76 14.27-1.13 29.06-1.13 44.43C115.21 559 293.21 737 512 737c218.8 0 396.8-178 396.8-396.8 0-15.37-0.37-30.17-1.13-44.43l-32.39 14.51c-27.81 12.47-58.8 13.36-87.26 2.49-28.47-10.85-51-32.14-63.46-59.94l-43.01-96.01c-25.71-57.39 0.07-125.01 57.14-150.58l45.32-21.06c7.97-3.7 16.47-5.47 24.9-5.47 18.08 0 35.84 8.17 47.3 23.04 72.81 94.59 103.87 195.52 103.87 337.46 0.01 247.07-201 448.09-448.08 448.09zM169.69 263.48c15.3 6.86 32.35 7.35 48.02 1.36 15.66-5.97 28.07-17.68 34.92-32.98l43-96.02c14.15-31.58-0.04-68.78-31.95-83.08l-45.31-21.06c-3.47-1.64-7.66-0.63-9.94 2.32-48.25 62.69-75.69 126.81-87.02 207.83l48.28 21.63z m645.88-229.45c-2.29-2.98-6.47-3.97-9.94-2.33l-45.64 21.2c-31.59 14.16-45.78 51.36-31.63 82.94l43.01 96.01c6.85 15.31 19.26 27.02 34.92 32.99 7.27 2.78 14.83 4.16 22.38 4.16 8.73 0 17.43-1.84 25.64-5.52l48.28-21.63c-11.34-81.02-38.77-145.14-87.02-207.82z"  horiz-adv-x="1024" />

    
    <glyph glyph-name="preview" unicode="&#58941;" d="M860.16 97.27999999999997c14.848 0 40.96 15.872 40.96 51.2V788.48c0 30.72-19.456 46.08-40.96 46.08H51.2c-12.8 0-28.672-3.584-37.376-12.8C4.608 813.056 0 801.28 0 788.48v-640c0-35.328 30.72-51.2 46.08-51.2h814.08zM20.48 793.6c0 10.752 9.216 20.48 25.6 20.48h814.08c9.728 0 20.48-11.264 20.48-25.6v-640c0-19.968-9.216-30.72-20.48-30.72H51.2c-4.608 0-30.72 3.584-30.72 33.792V793.6z m573.44-266.24c16.384 0 31.232 6.144 43.008 18.432 12.288 12.288 18.432 26.624 18.432 43.008s-6.144 31.232-18.432 43.008c-12.288 12.288-26.624 18.432-43.008 18.432s-31.232-6.144-43.008-18.432c-12.288-12.288-18.432-26.624-18.432-43.008s6.144-31.232 18.432-43.008c12.288-12.288 26.624-18.432 43.008-18.432z m0 101.376c10.752 0 19.968-3.584 27.648-11.264 8.192-8.192 12.288-17.92 12.288-28.672s-3.584-19.968-11.264-27.648c-8.192-8.192-17.92-12.288-28.672-12.288s-19.968 3.584-27.648 11.264c-8.192 8.192-12.288 17.92-12.288 28.672s3.584 19.968 11.264 27.648c8.704 8.192 17.92 12.288 28.672 12.288z m209.92-449.536c10.752 0 15.36 5.12 15.36 15.36V732.16c0 9.728-5.12 20.48-15.36 20.48H97.28c-10.24 0-15.36-5.632-15.36-15.36v-542.72c0-10.24 5.12-15.36 15.36-15.36h706.56zM102.4 363.52c0 0.512 173.056 167.424 173.056 167.424 4.096 4.096 8.704 5.632 14.336 5.632 6.656 0 11.776-2.048 15.36-5.632l233.984-233.984c2.56-3.072 6.144-4.608 10.752-4.608h4.096c1.536 0.512 2.048 1.536 3.072 2.048 1.536 0.512 2.56 1.536 4.096 3.072l120.32 113.664c4.096 4.608 8.704 6.656 14.336 6.656s10.752-2.048 14.336-5.632L798.72 343.03999999999996v-143.36l-696.32 1.024V363.52z m696.32 5.12l-65.536 52.224c-4.608 4.608-10.24 8.192-16.384 10.752-6.656 3.072-13.312 4.608-20.48 4.608-14.336 0-26.624-5.12-36.864-15.36l-108.544-103.936-222.72 223.232c-6.656 6.656-14.336 10.752-23.04 12.8-9.728 2.56-18.944 3.072-28.16 1.024-9.216-2.56-16.896-7.168-23.04-13.824L102.4 394.24V732.16h696.32v-363.52zM122.88 35.84000000000003v-81.92h901.12V752.64h-81.92v-20.48h61.44v-757.76H143.36v61.44h-20.48z"  horiz-adv-x="1024" />

    
    <glyph glyph-name="more" unicode="&#58940;" d="M510.295787-104.43539399999997c-65.515093 0-129.079652 12.835671-188.930389 38.150551-57.799071 24.446752-109.702485 59.440203-154.27037 104.008089-44.567886 44.567886-79.560335 96.472301-104.007088 154.270371-25.313878 59.850736-38.150551 123.415295-38.150551 188.929387s12.835671 129.079652 38.150551 188.929386c24.446752 57.79807 59.439201 109.702485 104.007088 154.270371 44.568887 44.567886 96.472301 79.561337 154.27037 104.008089 59.849735 25.313878 123.415295 38.14955 188.930389 38.149549 65.514092 0 129.078651-12.835671 188.929386-38.150551 57.79807-24.446752 109.702485-59.440203 154.270371-104.008088 44.567886-44.567886 79.561337-96.472301 104.008089-154.270371 25.313878-59.849735 38.150551-123.415295 38.150551-188.929387s-12.835671-129.078651-38.150551-188.929387c-24.446752-57.799071-59.440203-109.703486-104.008089-154.27037-44.568887-44.567886-96.473302-79.561337-154.270371-104.008089-59.850736-25.313878-123.416297-38.14955-188.929386-38.14955z m0 930.663773c-245.542918 0-445.306376-199.763458-445.306377-445.306377s199.763458-445.306376 445.306377-445.306376 445.306376 199.763458 445.306376 445.306376S755.837703 826.228379 510.295787 826.228379zM266.315899 360.895992h-30.039016c-11.060366 0-20.02601 8.965645-20.02601 20.02601s8.965645 20.02601 20.02601 20.026011h30.039016c11.060366 0 20.02601-8.965645 20.02601-20.026011s-8.965645-20.02601-20.02601-20.02601zM754.271669 360.89298799999995c-11.043343 0-20.02601 8.991679-20.02601 20.02601 0 11.044345 8.982667 20.02601 20.02601 20.026011 11.044345 0 20.02601-8.981666 20.026011-20.026011 0-11.034332-8.981666-20.02601-20.026011-20.02601z m-121.98744 0h-60.989215c-11.044345 0-20.02601 8.991679-20.02601 20.02601 0 11.044345 8.981666 20.02601 20.02601 20.026011h60.989215c11.043343 0 20.02601-8.981666 20.02601-20.026011 0-11.034332-8.982667-20.02601-20.02601-20.02601z m-182.978658 0h-60.999228c-11.044345 0-20.02601 8.991679-20.02601 20.02601 0 11.044345 8.981666 20.02601 20.02601 20.026011h60.999228c11.034332 0 20.015997-8.981666 20.015997-20.026011 0.001001-11.034332-8.981666-20.02601-20.015997-20.02601zM784.313689 360.895992h-30.039016c-11.060366 0-20.02601 8.965645-20.02601 20.02601s8.965645 20.02601 20.02601 20.026011h30.039016c11.060366 0 20.02601-8.965645 20.02601-20.026011s-8.965645-20.02601-20.02601-20.02601z"  horiz-adv-x="1024" />

    
    <glyph glyph-name="page" unicode="&#59114;" d="M234.666667 597.333333c-12.8 0-21.333333-8.533333-21.333333-21.333333 0-12.8 8.533333-21.333333 21.333333-21.333333 12.8 0 21.333333 8.533333 21.333333 21.333333C256 588.8 247.466667 597.333333 234.666667 597.333333zM149.333333 597.333333c-12.8 0-21.333333-8.533333-21.333333-21.333333 0-12.8 8.533333-21.333333 21.333333-21.333333 12.8 0 21.333333 8.533333 21.333333 21.333333C170.666667 588.8 162.133333 597.333333 149.333333 597.333333zM704 597.333333L405.333333 597.333333c-12.8 0-21.333333-8.533333-21.333333-21.333333 0-12.8 8.533333-21.333333 21.333333-21.333333l298.666667 0c12.8 0 21.333333 8.533333 21.333333 21.333333C725.333333 588.8 716.8 597.333333 704 597.333333zM896 853.333333L298.666667 853.333333c-46.933333 0-85.333333-38.4-85.333333-85.333333l0-21.333333c0-12.8 8.533333-21.333333 21.333333-21.333333 12.8 0 21.333333 8.533333 21.333333 21.333333L256 768c0 23.466667 19.2 42.666667 42.666667 42.666667l597.333333 0c23.466667 0 42.666667-19.2 42.666667-42.666667l0-597.333333c0-23.466667-19.2-42.666667-42.666667-42.666667l-21.333333 0c-12.8 0-21.333333-8.533333-21.333333-21.333333s8.533333-21.333333 21.333333-21.333333l21.333333 0c46.933333 0 85.333333 38.4 85.333333 85.333333L981.333333 768C981.333333 814.933333 942.933333 853.333333 896 853.333333zM320 597.333333c-12.8 0-21.333333-8.533333-21.333333-21.333333 0-12.8 8.533333-21.333333 21.333333-21.333333 12.8 0 21.333333 8.533333 21.333333 21.333333C341.333333 588.8 332.8 597.333333 320 597.333333zM725.333333 682.666667L128 682.666667c-46.933333 0-85.333333-38.4-85.333333-85.333333l0-597.333333c0-46.933333 38.4-85.333333 85.333333-85.333333l597.333333 0c46.933333 0 85.333333 38.4 85.333333 85.333333L810.666667 597.333333C810.666667 644.266667 772.266667 682.666667 725.333333 682.666667zM768 0c0-23.466667-19.2-42.666667-42.666667-42.666667L128-42.66666699999996c-23.466667 0-42.666667 19.2-42.666667 42.666667L85.333333 469.333333l682.666667 0L768 0zM768 512L85.333333 512l0 85.333333c0 23.466667 19.2 42.666667 42.666667 42.666667l597.333333 0c23.466667 0 42.666667-19.2 42.666667-42.666667L768 512z"  horiz-adv-x="1024" />

    
    <glyph glyph-name="disable" unicode="&#59085;" d="M561.1 187.54600000000005V482.202c0 47.155 49.102 47.155 49.102 0v-294.708c0.05-34.099-49.101-38.656-49.101 0.052z m-147.302 0V482.202c0 47.155 49.101 47.155 49.101 0v-294.708c0-38.656-49.1-34.099-49.1 0.052z m442.01 442.01H708.454v49.151c0 71.731-22.988 98.253-98.252 98.253H413.798c-74.035 0-98.252-24.166-98.252-98.253v-49.152H168.192c-53.094 0-53.094-49.1 0-49.1h687.616c53.094 0 53.094 49.1 0 49.1z m-491.162 49.151c0 47.667 2.97 49.101 49.101 49.101h196.455c46.08 0 49.1-1.126 49.1-49.1v-49.153H364.646v49.152z m343.91-687.616h-393.01c-70.964 0-98.253 27.239-98.253 98.253V482.202c0 49.612 49.1 49.612 49.1 0v-392.91c0-47.718-0.102-49.151 49.101-49.151h392.91c47.718 0 49.1-0.154 49.1 49.152V482.202c0 48.486 49.1 48.486 49.1 0v-392.91c0.103-69.426-23.96-98.2-98.047-98.2z"  horiz-adv-x="1024" />

    
    <glyph glyph-name="gengduo" unicode="&#59004;" d="M512.009 641.235c52.596 0 95.272 42.66 95.272 95.283 0 52.61-42.675 95.259-95.272 95.259-52.633 0-95.289-42.649-95.289-95.259-0.001-52.623 42.656-95.283 95.289-95.283z m0-514.426c-52.633 0-95.289-42.66-95.289-95.276 0-52.621 42.656-95.26 95.289-95.26 52.596 0 95.272 42.639 95.272 95.26 0 52.616-42.676 95.276-95.272 95.276z m0 362.01c-52.633 0-95.289-42.662-95.289-95.26 0-52.621 42.656-95.272 95.289-95.272 52.596 0 95.272 42.651 95.272 95.272 0 52.597-42.676 95.26-95.272 95.26z"  horiz-adv-x="1024" />

    
    <glyph glyph-name="fanhui" unicode="&#59005;" d="M692.7-64.2c-12.9 0-25.8 5.3-35.1 15.6L296.2 352.3c-16.2 18-16.2 45.3 0 63.3l361.4 401c17.5 19.4 47.3 20.9 66.7 3.5 19.4-17.5 20.9-47.3 3.5-66.7L394.9 384l332.9-369.3c17.5-19.4 15.9-49.3-3.5-66.7-9-8.2-20.3-12.2-31.6-12.2z"  horiz-adv-x="1024" />

    
    <glyph glyph-name="undefined" unicode="&#58930;" d="M512 831.3C265.3 831.3 64.7 630.7 64.7 384c0-118.8 46.6-226.8 122.5-307 0.6-0.7 1-1.4 1.7-2 0.4-0.4 0.8-0.7 1.3-1 81.4-84.5 195.6-137.3 322-137.3 246.7 0 447.3 200.7 447.3 447.3S758.7 831.3 512 831.3z m0-55.9c94.3 0 180.9-33.5 248.5-89.2L209.8 135.5c-55.7 67.6-89.2 154.2-89.2 248.5 0 215.8 175.6 391.4 391.4 391.4z m0-782.8c-101.5 0-194 38.8-263.7 102.4L801 647.7C864.6 578 903.4 485.5 903.4 384c0-215.8-175.6-391.4-391.4-391.4z"  horiz-adv-x="1024" />

    
    <glyph glyph-name="gaoji" unicode="&#58966;" d="M512.2-63.6c-246.9 0-447.8 200.9-447.8 447.8S265.3 832.1 512.2 832.1 960 631.2 960 384.3 759.2-63.6 512.2-63.6z m0 846.5c-219.8 0-398.7-178.8-398.7-398.7s178.8-398.7 398.7-398.7c219.8 0 398.7 178.8 398.7 398.7S732.1 782.9 512.2 782.9zM685.9 519.1H338.6c-13.5 0-24.6 11.1-24.6 24.6 0 13.5 11.1 24.6 24.6 24.6h347.3c13.5 0 24.6-11.1 24.6-24.6 0-13.6-11.1-24.6-24.6-24.6zM685.9 359.7H338.6c-13.5 0-24.6 11.1-24.6 24.6 0 13.5 11.1 24.6 24.6 24.6h347.3c13.5 0 24.6-11.1 24.6-24.6 0-13.6-11.1-24.6-24.6-24.6zM685.9 200.3H338.6c-13.5 0-24.6 11.1-24.6 24.6 0 13.5 11.1 24.6 24.6 24.6h347.3c13.5 0 24.6-11.1 24.6-24.6 0-13.6-11.1-24.6-24.6-24.6z"  horiz-adv-x="1024" />

    
    <glyph glyph-name="Health" unicode="&#58967;" d="M435.2 13.799999999999955V92H192.5c-19.4 0-36.4 11.9-43.4 30.3-7.1 18.8-2.1 39.5 12.9 52.7l225.6 168.3H233.4c-3 0-6 0.8-8.5 2.4-34.3 22.1-34.5 61.3-10.2 81.8L405 570.7s-94.7 0.7-97.1 2.2c-33.9 21.7-34.1 60.5-10.2 80.7L488 820.9c17.6 14.9 43.1 14.9 60.8 0l180.9-167.8c23.9-20.2 23.7-59-10.2-80.7-2.4-1.5-85.9-1.7-85.9-1.7L798.8 428c25-21.1 24.4-59.8-9.2-82.1-2.6-1.7-5.8-2.6-8.9-2.6H640.4l223-168.3c14.9-13.2 20-33.9 12.9-52.7-7-18.4-24-30.3-43.4-30.3H591v-77.8c0-47.6-35.2-77.8-78.3-77.8-42.3 0-77.5 30.2-77.5 77.4z m-238 126.1h286v-137.6c0-13.2 11.9-25.5 29.5-25.5 16.8 0 30.4 12.3 30.4 25.5V139.89999999999998h285.2L568 334.4c-16 15.6-13.7 44 12.9 56.8h191.2l-204 170.5c-16.1 15.5-14 44.1 12.7 56.9h119.9L521 790.6l-191.1-172h120.3c26.7-12.8 28.9-41.4 12.7-56.9L461 560 245.1 391.2h201.2c26.6-12.7 28.9-41.2 12.9-56.8l-1.5-1.4-260.5-193.1z"  horiz-adv-x="1024" />

    
    <glyph glyph-name="huanqi" unicode="&#58968;" d="M459.7 431c-3.7 4.7-9.4 6.9-15.2 6.3l-96-10.9c-5.1-0.4-9.4-4.2-10.4-9.3-1-5.2 1.6-10.3 6.5-12.6 6.3-3 12-6.7 17.1-10.6-40.7-31.3-95.2-49.4-144-46.7-38.5 2-76 12.7-108.4 30.9l-8.1 4.6c-22.2 12.9-28.9 16.9-34.9 10.9 0 0-1.8-2.1-2.3-5.2-0.4-2.6 1.4-6.3 1.4-6.3 6.5-10.7 23.3-26.2 40.8-37.7 39.9-26.2 93.9-42 124.6-43.7 5.4-0.3 10.9-0.5 16.3-0.5 53.2 0 103.8 15.7 143.7 45.2l12.9 8.7c18.9 15.8 43.4 40.2 51.3 51.1l5.8 7.8 1.1 2c2.2 5.4 1.3 11.4-2.2 16zM92.9 154.70000000000005c3.7-4.7 9.4-6.9 15.2-6.3l96 10.9c5.1 0.4 9.4 4.2 10.4 9.3 1 5.2-1.6 10.3-6.5 12.6-6.3 3-12 6.7-17.1 10.6 40.7 31.3 95.2 49.4 144 46.7 38.5-2 76-12.7 108.4-30.9l8.1-4.6c22.2-12.9 28.9-16.9 34.9-10.9 0 0 1.8 2.1 2.3 5.2 0.4 2.6-1.4 6.3-1.4 6.3-6.5 10.7-23.3 26.2-40.8 37.7-39.9 26.2-93.9 42-124.6 43.7-5.4 0.3-10.9 0.5-16.3 0.5-53.2 0-103.8-15.7-143.7-45.2l-12.9-8.7c-18.9-15.8-43.4-40.2-51.3-51.1l-5.8-7.8-1.1-2c-2.3-5.4-1.4-11.4 2.2-16zM805.3 19.200000000000045H350c-35.8 0-64.9 26.8-64.9 59.6v57.8c0 13.7 11.1 24.7 24.7 24.7 13.7 0 24.7-11.1 24.7-24.7v-57.8c0-4.8 6.6-10.2 15.4-10.2h455.2c8.8 0 15.4 5.4 15.4 10.2V409.4c0 14.7 11.9 26.6 26.5 26.6h38.7l-311 262.6c-1.1 1.1-2.3 1.1-3.4 0l-0.9-0.8-313.7-273.1c-10.3-9-25.9-7.9-34.9 2.4s-7.9 25.9 2.4 34.9l313.4 272.7c19.9 18.6 50.7 18.7 70.7 0.1l340.9-287.7c10.5-10 13.8-25.3 8.3-38.9-5.3-13.3-17.9-21.9-32-21.9h-55.3v-307.6c-0.1-32.7-29.2-59.5-64.9-59.5z"  horiz-adv-x="1024" />

    
    <glyph glyph-name="huashuang" unicode="&#58969;" d="M911.1 547l-98 28.9 22.1 95.2c3.3 14.4-5.6 28.7-20 32-14.4 3.3-28.7-5.6-32-20L758 574.4 539.6 442.1v266l79.9 77.9c10.6 10.3 10.8 27.2 0.5 37.7-10.3 10.6-27.2 10.8-37.8 0.5l-70-68.2-75.5 68.8c-10.9 9.9-27.8 9.1-37.7-1.7-9.9-10.9-9.2-27.8 1.7-37.7l85.4-77.8V441L266 574.4l-25.2 108.7c-3.3 14.4-17.6 23.3-32 20-14.4-3.3-23.3-17.7-20-32l22.1-95.2-98-28.9c-14.1-4.2-22.2-19-18-33.2 3.4-11.6 14.1-19.1 25.6-19.1 2.5 0 5 0.4 7.6 1.1l110.8 32.7 255.8-155c4.3-2.6 9.1-3.9 13.8-3.9 1.2 0 2.4 0.1 3.6 0.2 1.2-0.2 2.4-0.2 3.6-0.2 4.7 0 9.5 1.3 13.8 3.9l255.8 155L896 495.8c2.5-0.7 5.1-1.1 7.6-1.1 11.5 0 22.2 7.5 25.6 19.1 4.1 14.2-4 29-18.1 33.2zM503.1 298.8c-14-21.8-44.7-72.2-44.7-94.5 0-28.8 23.1-52.2 51.5-52.2 28.5 0 51.5 23.4 51.5 52.2 0 22.3-30.7 72.7-44.7 94.5-3.2 5-10.4 5-13.6 0zM189.6 450.4c-14-21.8-44.7-72.2-44.7-94.5 0-28.8 23.1-52.2 51.5-52.2 28.5 0 51.5 23.4 51.5 52.2 0 22.3-30.7 72.7-44.7 94.5-3.2 5-10.4 5-13.6 0zM816.5 450.4c-14-21.8-44.7-72.2-44.7-94.5 0-28.8 23.1-52.2 51.5-52.2s51.5 23.4 51.5 52.2c0 22.3-30.7 72.7-44.7 94.5-3.1 5-10.4 5-13.6 0zM503.1 82.9c-14-21.8-44.7-72.2-44.7-94.5 0-28.8 23.1-52.2 51.5-52.2 28.5 0 51.5 23.4 51.5 52.2 0 22.3-30.7 72.7-44.7 94.5-3.2 5-10.4 5-13.6 0z"  horiz-adv-x="1024" />

    
    <glyph glyph-name="kaiguan" unicode="&#58970;" d="M512-63.7c-218.3 0-396 177.6-396 396C116 471.4 190.4 602 310.2 673c12.5 7.4 28.6 3.3 36-9.2 7.4-12.5 3.3-28.6-9.2-36-103.9-61.6-168.4-174.9-168.4-295.5 0-189.3 154-343.4 343.4-343.4s343.4 154 343.4 343.4c0 120.5-61.5 230.1-164.4 293.1-12.4 7.6-16.3 23.8-8.7 36.2 7.6 12.4 23.8 16.3 36.2 8.7 118.7-72.6 189.5-199 189.5-338 0-218.3-177.7-396-396-396zM517.4 385.2c-14.5 0-26.3 11.8-26.3 26.3V805.4c0 14.5 11.8 26.3 26.3 26.3s26.3-11.8 26.3-26.3v-393.9c0-14.5-11.7-26.3-26.3-26.3z"  horiz-adv-x="1024" />

    
    <glyph glyph-name="ganzao" unicode="&#58971;" d="M958.9 20.8c-3.8 16.2-19 26.8-35.1 26.8H98.4c-21.8 0-38.9-21-33.4-44.5 3.8-16.2 19-26.8 35.1-26.8h825.4c21.8 0 38.9 21 33.4 44.5zM180.5 317.5c0.6-121.9 97.6-171.2 113.7-171.2 16.6 0 30.1 13.4 30.1 30 0 12.3-7.4 22.8-17.9 27.5-5.5 2.7-65.4 33.6-65.8 113.9-0.1 23.3 19.4 47 42 74.4C326.5 445.3 385.4 517 328.3 636h27.5c10.4 0 15.7 12.6 8.2 20.1l-62.6 132.2c-4.6 4.6-12 4.6-16.6 0l-58-132.2c-7.4-7.4-2.2-20.1 8.3-20.1h25.7c0.7-2 1.5-3.9 2.6-5.8 57-97.6 18-145-27.2-199.8-27.5-33.4-55.9-67.9-55.7-112.9zM426.5 318.7c0.6-121.9 97.6-171.2 113.7-171.2 16.6 0 30 13.4 30.1 30 0 12.3-7.4 22.8-17.9 27.5-5.5 2.7-65.4 33.6-65.8 113.9-0.1 23.3 19.4 47 42 74.4C572.3 446.4 631 517.8 574.9 636h25.8c10.4 0 15.6 12.6 8.2 20.1l-62.6 132.2c-4.6 4.6-12 4.6-16.6 0l-58-132.2c-7.4-7.4-2.2-20.1 8.3-20.1h27.2c0.6-1.6 1.3-3.1 2.2-4.6 57-97.6 18-145-27.2-199.8-27.5-33.4-55.9-67.9-55.7-112.9zM670.5 319.9c0.6-121.9 97.6-171.2 113.7-171.2 16.6 0 30.1 13.4 30.1 30 0 12.3-7.4 22.8-17.9 27.5-5.5 2.7-65.4 33.6-65.8 113.9-0.1 23.3 19.4 47 42 74.4 43.6 52.9 102 124 46.9 241.5H842c10.4 0 15.6 12.6 8.2 20.1l-62.6 132.2c-4.6 4.6-12 4.6-16.6 0l-58-132.2c-7.4-7.4-2.2-20.1 8.3-20.1h30.4c0.5-1.2 1.1-2.3 1.7-3.4 57-97.6 18-145-27.2-199.8-27.5-33.4-55.9-67.9-55.7-112.9z"  horiz-adv-x="1024" />

    
    <glyph glyph-name="moshi" unicode="&#58972;" d="M468.9 427.1H188.3C119.8 427.1 64 482.9 64 551.4V726.3C64 784.6 111.4 832 169.7 832h174.9c68.5 0 124.3-55.8 124.3-124.3v-280.6zM169.7 770.7c-24.5 0-44.4-19.9-44.4-44.4v-174.9c0-34.8 28.3-63.1 63.1-63.1h219.3V707.7c0 34.8-28.3 63.1-63.1 63.1H169.7zM344.6-64H169.7C111.4-64 64-16.6 64 41.7V216.6c0 68.5 55.8 124.3 124.3 124.3h280.5v-280.6c0.1-68.5-55.7-124.3-124.2-124.3zM188.3 279.6c-34.8 0-63.1-28.3-63.1-63.1v-174.9c0-24.5 19.9-44.4 44.4-44.4h174.9c34.8 0 63.1 28.3 63.1 63.1V279.6H188.3zM835.7 427.1H555.1V707.7c0 68.5 55.8 124.3 124.3 124.3h174.9C912.6 832 960 784.6 960 726.3v-174.9c0-68.5-55.8-124.3-124.3-124.3z m-219.3 61.3h219.3c34.8 0 63.1 28.3 63.1 63.1V726.3c0 24.5-19.9 44.4-44.4 44.4h-175c-34.8 0-63.1-28.3-63.1-63.1v-219.2zM854.3-64H679.4c-68.5 0-124.3 55.8-124.3 124.3V340.9h280.5c68.5 0 124.3-55.8 124.3-124.3v-174.9C960-16.6 912.6-64 854.3-64zM616.4 279.6v-219.3c0-34.8 28.3-63.1 63.1-63.1h174.9c24.5 0 44.4 19.9 44.4 44.4v175c0 34.8-28.3 63.1-63.1 63.1H616.4z"  horiz-adv-x="1024" />

    
    <glyph glyph-name="jieneng" unicode="&#58973;" d="M512.1 832.1C265 832.1 64 631.1 64 384.2s201-447.8 448.1-447.8 448.1 201 448.1 447.9-201 447.8-448.1 447.8z m0-838.3c-215.4 0-390.6 175.1-390.6 390.4s175.2 390.4 390.6 390.4 390.6-175.2 390.6-390.4-175.2-390.4-390.6-390.4zM545.7 381.6V620.8c37.6-5.3 73.9-22.8 96.4-55.7 7.3-10.6 21.2-12.9 31.2-5.3 10 7.6 12.2 22.4 5 32.9-31.8 46.4-81.8 69.9-132.6 75.7v43.2c0 16.1-13.1 29.2-29.2 29.2s-29.2-13.1-29.2-29.2v-44.2c-12.8-1.9-25.1-4.9-36.8-8.9-65.1-22.2-103.9-72.4-103.9-134.3 0-104.7 71.1-141.6 140.7-169.8v-245.3c-42.5 6.7-81.8 28.2-96.1 65-4.7 12.1-17.7 17.8-29.1 12.9-11.4-4.9-16.9-18.7-12.2-30.7 22.3-57.4 78.6-87.7 137.4-94.9v-16.8c0-16.1 13.1-29.2 29.2-29.2s29.2 13.1 29.2 29.3v17c5 0.7 9.9 1.5 14.7 2.5 77.6 16.1 125.8 70.6 125.8 142.3 0 107.8-70.4 146.4-140.5 175.1zM391.3 524.2c0 58.2 51.1 81.9 73 89.4 7.3 2.5 15 4.5 23 6v-214.3c-60.3 26.1-96 53.1-96 118.9z m160.4-413.8c-2-0.4-4-0.8-6-1.1V330.8c54.4-23.9 95.8-53.5 95.8-124.4 0-69.8-62.8-90.4-89.8-96z"  horiz-adv-x="1024" />

    
    <glyph glyph-name="jiashi" unicode="&#58974;" d="M515.8-63.8c-1.7 0-3.3 0.1-4.9 0.2h-0.7c-148 2.2-273 110.8-290.8 252.7-13.7 109.2 48.8 235.6 51.4 240.9L486.1 816.8c11.1 20 39.9 20 51.1 0l216.7-389.5c2.6-5.4 64.2-132.4 50.8-242.1-17-138.2-138.4-244.4-283.4-248.5-1.7-0.4-3.5-0.5-5.5-0.5z m-16.1 792L321.3 412.3c-0.3-0.7-55.9-113.5-44.6-204.3 14.2-113.6 114.9-212.3 234.2-214.1h1.6c1.2 0.1 2.4 0.1 3.7 0.2 118.1 1.8 217.4 98.8 231 210.1 11 89.7-41.3 200-44.2 206.1l-179.5 318c-5.2 9.2-18.6 9.2-23.8-0.1z"  horiz-adv-x="1024" />

    
    <glyph glyph-name="AssHt" unicode="&#58975;" d="M553-61.700000000000045C273.8-86.60000000000002 41 146.10000000000002 65.8 425.1 84.9 639 257.2 811.2 471.2 830.2c279.2 24.9 512-207.9 487.1-486.8C939.3 129.5 767-42.700000000000045 553-61.700000000000045z m1.5 834.1C305.9 798.7 97.4 590.3 123.7 341.9c19.2-181 164.8-326.6 346-345.8 248.6-26.3 457.1 182.1 430.8 430.5-19.2 181.1-164.8 326.6-346 345.8zM626.2 311.1c13.5 0 65.7 32.1 65.7 103.5 0 27-15.4 47.3-30.3 67-22.9 30.2-42.7 56.2-14.3 110.1 5.7 10.9 1.6 24.4-9.3 30.2-10.9 5.7-24.4 1.6-30.2-9.3-41.7-79-7.1-124.6 18.2-157.9 11.4-15 21.2-28 21.2-40 0-42.9-28.3-59.7-31.1-61.2-7.3-3.7-12.3-11.2-12.3-19.9 0.1-12.5 10.1-22.5 22.4-22.5zM497.6 311.1c13.5 0 65.7 32.1 65.7 103.5 0 27-15.4 47.3-30.3 67-22.9 30.2-42.7 56.2-14.3 110.1 5.7 10.9 1.6 24.4-9.3 30.2-10.9 5.7-24.4 1.6-30.2-9.3-41.7-79-7.1-124.6 18.2-157.9 11.4-15 21.2-28 21.2-40 0-42.9-28.3-59.7-31.1-61.2-7.3-3.7-12.3-11.2-12.3-19.9 0.1-12.5 10.1-22.5 22.4-22.5zM370 311.1c13.5 0 65.7 32.1 65.7 103.5 0 27-15.4 47.3-30.3 67-22.9 30.2-42.7 56.2-14.3 110.1 5.7 10.9 1.6 24.4-9.3 30.2-10.9 5.7-24.4 1.6-30.2-9.3-41.7-79-7.1-124.6 18.2-157.9 11.4-15 21.2-28 21.2-40 0-42.9-28.3-59.7-31.1-61.2-7.3-3.7-12.3-11.2-12.3-19.9 0.1-12.5 10.1-22.5 22.4-22.5zM625.5 137.79999999999995h-0.7c-8.7 0.2-16.7 4.3-22 11.2l-54.7 81.6-49.5-79.7c-5.2-7.8-14-12.5-23.4-12.6h-0.4c-9.3 0-18 4.5-23.3 12L400.4 235l-19.8-31.8c-5.4-7.1-13.9-11.3-22.8-11.3h-115c-11.9 0-21.6 9.6-21.6 21.5s9.7 21.5 21.6 21.5h107.8l27.4 41.7c5.5 7.2 14 11.8 23.2 11.3 9.1-0.1 17.6-4.6 22.9-12l50.5-83.8 49 79.1c5.1 7.6 13.7 12.3 22.9 12.6 9.2 0.4 18-3.9 23.6-11.2l56-83.3 24.7 35.4c5.5 6.4 13.4 10.1 21.9 10.1h108.9c11.9 0 21.6-9.6 21.6-21.5s-9.7-21.5-21.6-21.5H679.3l-31.9-44c-5.5-6.3-13.4-10-21.9-10z m-279.3 91.5z m66.1 15.6c0-0.1 0 0 0 0z"  horiz-adv-x="1024" />

    
    <glyph glyph-name="shineiwendu" unicode="&#58976;" d="M442.3 527.1V307c-1.2-1.1-3.3-2.7-6.3-4.3l-2-1.2c-11.3-8-21.1-18.1-29.1-29.8-14.3-21-21.8-46.2-21.8-72.9 0-35.5 14.9-69.9 40.9-94.2 24.2-22.6 55.1-34.8 88-34.8 2.9 0 5.9 0.1 8.8 0.2 65.3 4.4 116.9 56.9 120.1 122.3 1.4 27.2-5.7 53.6-20.5 76.3-0.8 1.1-1.5 2.2-2.3 3.3-6.8 9.7-14.9 18.5-24.1 26.1l-5.9 4c-3.4 1.9-5.6 3.5-6.8 4.6V527.1c0 38.3-31.2 69.5-69.5 69.5s-69.5-31.2-69.5-69.5z m101 0v-224c0-12.9 8.6-24.4 25.7-34.1l1.6-1.1c6.2-5.3 11.7-11.3 16.3-17.9l1.6-2.4c10.4-15.9 15.3-34.4 14.4-53.5-2.3-45.2-39.4-83-84.5-86-25.5-1.7-49.8 6.9-68.3 24.3-18.6 17.3-28.8 40.9-28.8 66.3 0 19 5.3 36.8 15.2 51.5 5.2 7.6 11.5 14.1 18.7 19.4 10 5.6 25.3 17 25.5 34.2V527.1c0 17.2 14 31.3 31.3 31.3 17.2 0 31.3-14 31.3-31.3zM948.2 441L552 798.2c-22.4 21.5-57.4 21.5-79.3 0.5L75.4 440.6C64.4 430 61 414 66.8 399.7c5.6-13.8 18.7-22.8 33.4-22.8h80.9v-355.8c0-37.1 33.1-67.3 73.8-67.3h519.5c40.8 0 73.9 30.2 73.8 67.4V376.9H924c14.7 0 27.8 8.9 33.4 22.8 5.7 14.2 2.3 30.3-9.2 41.3z m-121.7-16.3c-14.3 0-26-11.8-26-26.2v-377.4c0-10.6-12-19.6-26.1-19.6H254.9c-14.2 0-26.1 9-26.1 19.6V398.4c0 14.5-11.6 26.2-26 26.2h-73.7l376.1 339.2c4.1 3.9 9.7 3.9 14.3-0.5l375.6-338.6h-68.6zM475.7 199.3c0-20.1 16.3-36.4 36.4-36.4s36.4 16.3 36.4 36.4c0 15.9-10.2 29.5-24.5 34.4V369.5c0 6.6-5.3 11.9-11.9 11.9s-11.9-5.3-11.9-11.9v-135.8c-14.3-4.9-24.5-18.5-24.5-34.4z"  horiz-adv-x="1024" />

    
    <glyph glyph-name="quyusongfeng" unicode="&#58977;" d="M106-63.6c-22.1 0-39.9 17.8-39.9 39.7l-0.1 705C66 764.5 133.9 832 217.5 832l700.5 0.1c22.1 0 39.9-17.8 39.9-39.7 0-21.9-17.9-39.7-39.9-39.7l-700.5-0.1c-39.6 0-71.7-31.9-71.6-71.3l0.1-705c0-22.1-17.9-39.9-40-39.9zM290.1 57v55.8c278.6 0 488.7 207.5 488.7 482.7h56.1c0-302-239.3-538.5-544.8-538.5zM886.5 554.3l-68.1 110.2c-4.1 4.1-10.7 4.1-14.8 0l-68.1-110.2c-6.6-6.5-1.9-17.7 7.4-17.7h136.2c9.3 0 14 11.1 7.4 17.7zM336.9 159.8l-110.7-67.7c-4.1-4.1-4.1-10.6 0-14.7l110.7-67.7c6.6-6.5 17.8-1.9 17.8 11.3V156.4c0 5.3-11.2 10-17.8 3.4z"  horiz-adv-x="1024" />

    
    <glyph glyph-name="Avoid" unicode="&#58978;" d="M719.3 357.5c-116.1 0-210.5-94.5-210.5-210.5 0-116.1 94.5-210.6 210.5-210.6S929.8 30.899999999999977 929.8 147s-94.4 210.5-210.5 210.5z m0-354.5c-79.4 0-144 64.6-144 144 0 29.7 9 57.3 24.5 80.2L788 20.5c-20.4-11.2-43.9-17.5-68.7-17.5z m117 60.3l-189.5 208c21.3 12.5 46.1 19.6 72.5 19.6 79.4 0 143.9-64.5 143.9-143.9 0-31.2-10-60.1-26.9-83.7zM719.9 654.1c-8.7 32.8-23.2 62.9-43.1 89.2-42.6 56.4-105.2 88.9-171.6 88.9-123.3 0-223.6-111.3-223.6-248 0-65.3 22.6-127 63.8-173.6l1.6-1.7c6.4-6.5 15.4-20.4 14.7-29.5-0.5-7.2-10.7-16.4-27.6-23.8C148.5 273.70000000000005 75.8 158 72.2-17.600000000000023v-38.8H370c21.4 0 38.8 17.3 38.8 38.7 0 21.4-17.4 38.8-38.8 38.8H153.9c1.4 12.3 1.7 18.3 4 34.8 11.1 79.5 51.4 157 208.5 229.4 56.5 25.9 70.7 62.3 72.7 88.4 3.4 45.2-28.6 81.2-36.1 89-28.2 32.4-43.8 75.5-43.8 121.6 0 93.9 65.5 170.4 146 170.4 41.8 0 81.9-21.4 109.7-58.2 13.8-18.3 23.9-39.2 30-62.3 4.2-16.1 6.4-33 6.4-50.1 0-46-15.3-89.4-43.8-121.5-5.9-6.7-20.9-32.8 3.1-54.3 22.8-20.5 47.6-4.2 52.7 0.3l1.8 1.9c41.1 46.6 63.8 108.3 63.8 173.6 0 23.8-3 47.4-9 70z"  horiz-adv-x="1024" />

    
    <glyph glyph-name="yuyinjineng" unicode="&#58980;" d="M599.1 23.9h-103c-15.4 0-27.9 12.5-27.9 27.9s12.5 27.9 27.9 27.9h103c7.7 0 14.9 3 20.4 8.5 5.4 5.4 8.5 13 8.5 20.7V292.1c0 22.4 18.3 40.7 40.7 40.7h61.5c-70.6 138.8-70.8 145.1-71 153-4.5 190.4-141.6 258.1-269 258.1h-1.5c-144.8-0.6-255.3-98-268.9-236.8-1.5-15.4-15.2-26.5-30.5-25.1-15.4 1.5-26.6 15.2-25.1 30.5C80.7 680.9 214.1 799 388.5 799.7h1.9c191.5 0 318.4-120.9 324.6-308.8 4.8-12.1 27-58.4 76.2-154.8 6.5-12.7 5.9-27.5-1.5-39.7-7.5-12.2-20.4-19.5-34.7-19.5h-71.1v-168c0-22.7-8.8-44-24.8-60.1-16-16-37.3-24.9-60-24.9z m116 463.2zM747 62.1c-9.2 0-17.7 5.7-21 14.8-4.2 11.6 1.8 24.4 13.5 28.6 23.6 8.5 42.5 25.2 53.4 47 10.8 21.7 12.8 46.7 5.5 70.5-3.6 11.8 3 24.3 14.8 27.9 11.8 3.6 24.3-3 27.9-14.8 10.6-34.8 7.7-71.5-8.2-103.5-16-32.1-43.8-56.7-78.2-69.1-2.6-1-5.2-1.4-7.7-1.4zM802.9-31.9c-9.2 0-17.8 5.7-21 14.8-4.1 11.6 1.9 24.4 13.5 28.6 44.7 16 80.7 47.6 101.4 89 20.4 40.9 24.2 88.1 10.6 132.9-3.6 11.8 3.1 24.3 14.9 27.8 11.8 3.6 24.3-3.1 27.9-14.9 16.9-55.8 12.1-114.6-13.4-165.8-25.8-51.8-70.7-91.3-126.4-111.2-2.5-0.8-5-1.2-7.5-1.2z"  horiz-adv-x="1024" />

    
    <glyph glyph-name="SwingUD" unicode="&#58981;" d="M503 805.8c0-14.4 11.7-26 26-26 102.2 0 185.3-83.1 185.3-185.3v-420.9c0-102.2-83.1-185.3-185.3-185.3-14.4 0-26-11.7-26-26s11.7-26 26-26c130.9 0 237.3 106.5 237.3 237.3V594.5c0 130.9-106.5 237.3-237.3 237.3-14.4 0-26-11.6-26-26zM344.5 35.89999999999998c0-4 0.9-8.1 2.9-12 6.6-12.8 22.3-17.7 35.1-11.1l180.7 93.8c12.8 6.6 17.7 22.4 11.1 35.1s-22.3 17.7-35.1 11.1L358.6 59c-8.9-4.6-14.1-13.7-14.1-23.1zM288.1 210.79999999999995c0-1.7 0.2-3.3 0.5-5 2.8-14.1 16.4-23.3 30.6-20.5l237.2 46.5c14.1 2.8 23.3 16.5 20.5 30.6-2.8 14.1-16.4 23.3-30.6 20.5l-237.2-46.5c-12.4-2.5-21-13.4-21-25.6zM257.6 385.2c0-14.4 11.7-26 26-26h267.6c14.4 0 26 11.7 26 26 0 14.4-11.7 26-26 26H283.7c-14.4 0.1-26.1-11.6-26.1-26zM289.8 559.5c0-12.2 8.6-23.1 21-25.5l235.4-46.2c14.1-2.8 27.8 6.4 30.6 20.5 2.8 14.1-6.4 27.8-20.5 30.6l-235.4 46.2c-14.1 2.8-27.8-6.4-30.6-20.5-0.3-1.8-0.5-3.4-0.5-5.1zM346.5 732.1c0-9.6 5.3-18.8 14.5-23.3L539.8 620c12.9-6.4 28.5-1.1 34.9 11.7 6.4 12.9 1.1 28.5-11.7 34.9l-178.8 88.8c-12.9 6.4-28.5 1.1-34.9-11.7-2-3.8-2.8-7.7-2.8-11.6z"  horiz-adv-x="1024" />

    
    <glyph glyph-name="yuyin" unicode="&#58982;" d="M512.1 175.7c86.7 0 157.2 70.5 157.2 157.2v342c0 86.7-70.5 157.2-157.2 157.2-86.7 0-157.2-70.5-157.2-157.2V333c0-86.8 70.6-157.3 157.2-157.3zM403.9 674.9c0 59.7 48.5 108.2 108.2 108.2s108.2-48.6 108.2-108.2V333c0-59.7-48.5-108.2-108.2-108.2S403.9 273.4 403.9 333V674.9zM724.3 547.7c-13.5 0-24.5-11-24.5-24.5v-206.5c0-95.8-84.2-173.7-187.7-173.7-103.5 0-187.7 77.9-187.7 173.7V523.2c0 13.5-11 24.5-24.5 24.5s-24.5-11-24.5-24.5v-206.5c0-113 90-206.4 206.1-220.6v-98.4H380.9c-16.9 0-30.6-13.7-30.6-30.6 0-16.9 13.7-30.6 30.6-30.6h262.5c16.9 0 30.6 13.7 30.6 30.6 0 16.9-13.7 30.6-30.6 30.6H542.7v98.4c116.1 14.2 206.1 107.6 206.1 220.6V523.2c0 13.6-10.9 24.5-24.5 24.5z"  horiz-adv-x="1024" />

    
    <glyph glyph-name="Sleep" unicode="&#58983;" d="M523.3-54.299999999999955c-111.6 0-219.6 38.2-307.9 110.8C129.7 127.10000000000002 75.2 232.70000000000005 66 346.4 49.6 548.7 147.4 728.5 321.2 815.5c23.8 11.9 53.8 7.9 74.5-10 18.5-16 25.5-39.7 18.2-62.1-47.4-144.6-15.4-286.4 85.4-379.2 99.3-91.4 243-113.7 375-58.1 24.9 10.5 50.1 6.3 67.3-11.2 19.7-20 23.8-52.1 10.7-81.8-56.5-127.5-171-220.1-314-254-38.4-9-76.9-13.4-115-13.4z m-398 405.5c7.9-97.7 54.5-188.4 127.9-248.8 103.9-85.5 239.2-116.6 371.2-85.3 124.8 29.6 224.4 109.8 273.3 220.2 3.1 7.1 2.6 12.5 1.8 14.9-0.6-0.1-1.3-0.4-2.3-0.8-153.7-64.8-321.7-38.3-438.4 69.1-118.1 108.7-156.2 273.1-102.1 440-1.9 1.6-6.2 3.2-9 1.8-151.5-75.9-236.8-233.5-222.4-411.1z"  horiz-adv-x="1024" />

    
    <glyph glyph-name="Air" unicode="&#58984;" d="M790.8-22.600000000000023h-505c-40.7 0-71.8 28.7-71.8 67V109c0 16.8 14.4 26.3 26.3 26.3 12 0 26.3-14.4 26.3-26.3v-64.6c0-4.8 7.2-9.6 16.8-9.6h505c9.6 0 16.8 4.8 16.8 9.6V410.6c0 16.8 14.4 28.7 28.7 28.7H877l-347.1 292h-2.4l-347.1-304c-9.6-9.6-28.7-7.2-40.7 2.4-9.6 9.6-7.2 28.7 2.4 40.7l349.5 304c21.5 21.5 55.1 21.5 79 0l378.2-320.7c9.6-9.6 16.8-28.7 7.2-43.1-4.8-16.8-21.5-23.9-33.5-23.9h-59.8v-339.9c-0.1-40.7-31.3-69.4-71.9-69.4zM590.5 502.6c-20 8.7-35-8.4-46.1-20.8-1.7-2-3.4-3.9-5-5.6C521 456.6 497 450 456.1 440c-49.2-12-81.5-9.8-107.6-8-30.1 2.1-58.4 4-92.1-18.1-56.3-36.9-75.1-102.8-75.9-105.5-5-18-7.1-37.1-6.2-56.8-8.3-9.8-16.3-17.2-27.1-21.7-19.9-8.2-25.7-10.4-58.2-6.9-6.1 0.7-12.1-1.1-16.9-4.9-4.8-3.9-7.8-9.4-8.4-15.5-0.6-6.1 1.1-12.1 5-16.9 3.9-4.8 9.4-7.8 15.5-8.4 41-4.4 53.7-1.1 80.8 10.2 25.8 10.8 40.1 28.7 53.9 46 6.3 7.9 12.3 15.4 19.2 21.9 20.6 19.3 47.3 32.9 77.2 39.5 12.3 2.7 25.6 2.9 39.9 3.1 14.4 0.2 29.3 0.4 44.7 3.3 33 6.2 64.3 20.3 93.1 41.9 4.9 3.7 8.1 9 9 15.1 0.9 6.1-0.7 12.1-4.3 17.1-3.7 4.9-9.1 8.1-15.2 9-6.1 0.9-12.1-0.7-17-4.3-23.3-17.4-48.3-28.7-74.1-33.6-11.5-2.2-23.8-2.3-36.8-2.5-15.8-0.2-32.1-0.4-49.1-4.2-28-6.2-54.3-17.6-76.8-33.4 6.6 16.5 22.8 49.2 53.1 69.1 20.7 13.6 36 12.6 63.8 10.7 29.2-2 65.6-4.5 121.7 9.3 33.6 8.2 63.3 15.5 88.6 34.1-11.4-60.4-31.4-142-102.4-186.4-10.2-6.4-34-21.3-67.5-26.3-27.8-4.1-53.8-0.4-86.7 4.4-15.6 2.3-31.4 5.2-46.9 8.9-12.4 2.9-24.7-4.8-27.6-17.1-1.4-6-0.4-12.1 2.9-17.4 3.2-5.2 8.3-8.9 14.3-10.3 16.8-3.9 33.9-7.1 50.9-9.6 35.2-5.1 65.5-9.5 100-4.4 10.7 1.6 21.4 4.1 31.8 7.4 25.9 8.2 44.4 19.8 53.3 25.4 94.7 59.3 113.6 163.3 127.3 239.2 3 18.3 8.5 49-14.8 59.2z"  horiz-adv-x="1024" />

    
    <glyph glyph-name="Dazzling" unicode="&#58985;" d="M523.8 454.9c20.1-24.7 62.3-18.4 62.3-23.7 0-4.6-30.7 0.8-51.1-18-17.6-16.2-22.1-45.4-24.6-61.6-2.2-13.9-2.2-26.5-3.6-26.5s-1.6 12.6-4.1 26.6c-2.6 14.4-7.6 42.9-24.9 59.2-21 19.7-52.7 14.7-52.6 19.3 0.1 5.4 45.4-1.7 63.2 22.9 8 11.1 10.2 28.2 12.7 48 1.6 12.8 1.8 24.2 2.8 24.2 1 0 1.1-11.6 3.3-24.6 1.5-9.3 5.4-32 16.6-45.8zM808.1 385.9c49.2-60.3 152.1-44.8 152.1-58 0-11.2-75 1.9-124.8-44.1-42.9-39.6-54-110.9-60.2-150.6-5.3-33.9-5.5-64.6-8.9-64.7-3.4 0-3.9 30.7-10 64.9-6.3 35.3-18.6 104.9-61 144.6-51.2 48.1-128.7 36-128.6 47.1 0.2 13.3 111-4 154.4 56 19.6 27.1 24.9 69 30.9 117.4 3.9 31.4 4.3 59.1 6.8 59.1 2.6 0 2.7-28.4 8.2-60 4.1-22.6 13.7-78.2 41.1-111.7zM673.8 208.5c2.7-2.6 4.9-5.7 6.5-9.1 3.6-7.8 3.8-16.7 2.8-25.2-1.9-16.7-7.8-32.7-14.6-48-15.5-34.6-36.5-66.9-64.2-93.2-8.1-7.7-16.6-14.8-25.7-21.3-29.8-21.5-65.2-34.2-101.5-39.4-35.4-5.1-71.8-2.9-106.2 6.8-11.2 3.2-22.1 7.1-32.7 11.8-0.9 0.4-1.9 1-1.8 2 0.1 1.1 1.5 1.5 2.6 1.6 6.1 0.6 12.3 0.1 18.4-0.1 36.6-1.5 73.4 5.3 107.3 19.1 34 13.8 65.3 34.7 90.5 61.5 26.4 27.9 46.6 61.5 57.7 98.4 3.8 12.6 7.1 26.1 16.7 35.1 7.3 6.8 17.8 10.1 27.7 8.4 6.2-1.1 12-4.1 16.5-8.4zM426.7 141.79999999999995c-0.8-3.7-2.2-7.2-4.2-10.3-4.7-7.2-12.1-12.1-19.8-15.8-15.1-7.3-31.8-10.8-48.4-13.1-37.7-5.3-76.1-4.7-113.1 4.8-10.8 2.8-21.4 6.2-31.7 10.4-34.1 13.8-63.6 37-87.3 65C99.1 210 81.5 242 71.5 276.29999999999995c-3.3 11.1-5.8 22.5-7.4 34-0.1 1-0.2 2.2 0.7 2.6 1 0.5 2.1-0.4 2.8-1.3 3.7-4.9 6.6-10.4 9.7-15.7 18.2-31.8 43.5-59.4 73.2-80.8 29.8-21.5 64.1-36.8 100.2-43.9 37.7-7.5 76.9-6.8 114 3.5 12.6 3.5 25.9 7.9 38.6 4.5 9.7-2.5 18-9.8 21.8-19 2.4-5.8 2.9-12.3 1.6-18.4zM249 319.29999999999995c-3.5-1.2-7.3-1.9-11-1.8-8.6 0.3-16.6 4.1-23.8 8.7-14.1 9.1-25.7 21.6-36.3 34.6-24.1 29.5-43.5 62.7-54.5 99.2-3.2 10.6-5.8 21.5-7.5 32.5-5.9 36.3-1.3 73.6 10.3 108.4 11.3 33.9 29.6 65.5 53.7 91.9 7.8 8.6 16.3 16.6 25.3 24 0.7 0.6 1.8 1.2 2.6 0.8 1-0.6 0.7-2 0.3-3-2.2-5.7-5.4-11-8.4-16.4-17.7-32.1-28.2-68-31.1-104.5-2.9-36.6 1.8-73.9 14.4-108.5 13.1-36.1 34.1-69.3 62.1-95.7 9.6-9 20.2-18.1 23.9-30.7 2.8-9.6 1-20.5-4.9-28.5-4-5.1-9.3-9-15.1-11zM323.3 544.7c-2.9 2.4-5.3 5.3-7.1 8.6-4.1 7.5-4.8 16.4-4.4 24.9 0.8 16.8 5.7 33.1 11.5 48.8 13.3 35.6 32.2 69.1 58.1 97.1 7.6 8.2 15.7 15.8 24.2 22.9 28.4 23.4 62.8 38.3 98.7 45.8 35 7.3 71.5 7.5 106.4 0 11.4-2.4 22.5-5.7 33.4-9.7 0.9-0.3 2-0.9 2-1.9 0-1.1-1.4-1.6-2.5-1.8-6.1-1-12.3-0.9-18.4-1-36.6-0.9-72.9-10-105.9-25.9-33.1-16-62.9-38.8-86.4-67.1-24.5-29.6-42.6-64.4-51.3-101.9-2.9-12.8-5.4-26.5-14.4-36.1-6.8-7.3-17.2-11.2-27.1-10.1-6.1 0.7-12.1 3.4-16.8 7.4zM550.1 606.6c0.6 3.7 1.9 7.3 3.8 10.5 4.4 7.3 11.7 12.5 19.2 16.5 14.8 7.8 31.4 11.9 47.9 14.8 37.5 6.6 75.9 7.4 113.2-0.7 10.9-2.4 21.6-5.5 32-9.3 34.5-12.6 64.9-34.7 89.6-61.8 24.1-26.4 42.7-57.8 54-91.7 3.7-11 6.6-22.3 8.6-33.7 0.2-0.9 0.2-2.1-0.6-2.6-1-0.6-2.1 0.3-2.8 1.2-3.9 4.8-7 10.1-10.2 15.3-19.4 31.1-45.6 57.8-76.1 78.1-30.6 20.4-65.4 34.5-101.7 40.3-37.9 6.1-77.1 4-113.8-7.6-12.5-4-25.6-8.8-38.4-5.9-9.8 2.2-18.4 9.1-22.5 18.2-2.5 5.8-3.3 12.3-2.2 18.4z"  horiz-adv-x="1024" />

    
    <glyph glyph-name="FanR" unicode="&#58986;" d="M556.1 370.5c-0.8 2 0.7 4.2 2.9 4.1 19.6-0.7 90.9-1.2 113.4-0.2 2.3 0.1 4.5-0.5 6.5-1.7 16.6-9.8 30.6-17.5 47.3-27.4 0.8-0.6 1.2-1.5 1-2.5-0.2-1-1.1-1.8-2.1-1.9-22.4-1.8-49.4-2.4-74.1-2.9-29.6-0.6-52-1.3-78.4 0-1.2 0.1-2.2 0.8-2.7 1.9-5.1 10.8-9.7 20.8-13.8 30.6zM876.7 243.89999999999998l80.4-47.4c2-0.8 3.2-2.7 2.9-4.8-0.2-1.8-1.5-3.3-3.3-3.8-50.7-6.6-104.4-12.1-160.8-16.1-52.5-3.7-112.2-5.8-160.1-6.6-1.3 0-2.5 0.9-3 2.1-8.2 21.8-15.1 40.1-23.2 61.1-0.8 2.1 0.6 4.3 2.8 4.3 39.1-0.3 83.1 0.4 126.2 2.5 45.7 2.2 89.2 5.8 130.3 10.3 2.4 0.4 5.8-0.4 7.8-1.6zM579.1 308.29999999999995c-0.8 2 0.7 4.1 2.8 4.1 15-0.3 65.1-1.3 95.7-0.4 25.5 0.7 69.7 3.7 82.7 4.7 2.5 0.2 4.8-0.4 7-1.7 11-6.5 47.1-27.8 66.7-39.3 1-0.8 1.5-2.1 1.1-3.3-0.3-1.1-1.2-1.9-2.4-2.2-36.4-4-73.4-5.8-111.5-7.2-40.6-1.6-79.8-1.5-120.9-1.5-1.2 0-2.4 0.8-2.9 2-6.4 14.7-12.9 30.8-18.3 44.8zM88.6 326.20000000000005c13.8 0 24.7 11.9 24.7 27.7 0 106.7 78 194.6 173.8 194.6h395.1c95.8 0 173.8-86.9 173.8-194.6 0-14.8 10.9-27.7 24.7-27.7s24.7 11.9 24.7 27.7c0 137.3-99.8 248.9-223.2 248.9H287.1c-122.5 0-223.2-111.6-223.2-248.9 0-15.8 10.9-27.7 24.7-27.7z"  horiz-adv-x="1024" />

    
    <glyph glyph-name="shangxiadingge" unicode="&#58987;" d="M567.5 357.7H283.1c-14.5 0-26.3 11.8-26.3 26.3s11.8 26.3 26.3 26.3h284.4c14.5 0 26.3-11.8 26.3-26.3s-11.8-26.3-26.3-26.3zM529.9-63.8c-14.4 0-26 11.7-26 26s11.7 26 26 26c102.2 0 185.3 83.1 185.3 185.3v421c0 102.2-83.1 185.3-185.3 185.3-14.4 0-26 11.7-26 26s11.7 26 26 26c130.9 0 237.3-106.5 237.3-237.3v-421c0-130.9-106.5-237.3-237.3-237.3zM500.9 236.5v-0.1c3.2-11.9 15.5-19.1 27.5-15.9l31 8.3c11.9 3.2 19.1 15.5 15.9 27.5v0.1c-3.2 11.9-15.5 19.1-27.5 15.9l-31-8.3c-11.9-3.2-19.1-15.6-15.9-27.5zM399.9 209.6v-0.1c3.2-11.9 15.5-19.1 27.5-15.9l31 8.3c11.9 3.2 19.1 15.5 15.9 27.5v0.1c-3.2 11.9-15.5 19.1-27.5 15.9l-31-8.3c-11.9-3.2-19.1-15.5-15.9-27.5zM299 182.8v-0.1c3.2-11.9 15.5-19.1 27.5-15.9l31 8.3c11.9 3.2 19.1 15.5 15.9 27.5v0.1c-3.2 11.9-15.5 19.1-27.5 15.9l-31-8.3c-11.9-3.2-19.1-15.6-15.9-27.5zM507 89.5c6.3-10.7 20.1-14.4 30.8-8.1l27.7 16.2c10.7 6.3 14.3 20.1 8 30.7l-0.1 0.1c-6.3 10.7-20.1 14.3-30.7 8L515 120.3c-10.6-6.3-14.2-20.1-8-30.8zM416.9 36.7c6.3-10.7 20.1-14.4 30.8-8.1l27.7 16.2c10.7 6.3 14.3 20.1 8 30.7l-0.1 0.1c-6.3 10.7-20.1 14.3-30.7 8l-27.7-16.2c-10.6-6.3-14.2-20.1-8-30.7zM326.8-16.2c6.3-10.7 20.1-14.4 30.8-8.1l27.7 16.2c10.7 6.3 14.3 20.1 8 30.7l-0.1 0.1c-6.3 10.7-20.1 14.3-30.7 8l-27.7-16.2c-10.6-6.2-14.2-20.1-8-30.7zM500.9 529.2v0.1c3.2 11.9 15.5 19.1 27.5 15.9l31-8.3c11.9-3.2 19.1-15.5 15.9-27.5v-0.1c-3.2-11.9-15.5-19.1-27.5-15.9l-31 8.3c-11.9 3.2-19.1 15.6-15.9 27.5zM399.9 556.1v0.1c3.2 11.9 15.5 19.1 27.5 15.9l31-8.3c11.9-3.2 19.1-15.5 15.9-27.5v-0.1c-3.2-11.9-15.5-19.1-27.5-15.9l-31 8.3c-11.9 3.2-19.1 15.5-15.9 27.5zM299 582.9v0.1c3.2 11.9 15.5 19.1 27.5 15.9l31-8.3c11.9-3.2 19.1-15.5 15.9-27.5v-0.1c-3.2-11.9-15.5-19.1-27.5-15.9l-31 8.3c-11.9 3.2-19.1 15.6-15.9 27.5zM507 676.2c6.3 10.7 20.1 14.4 30.8 8.1l27.7-16.2c10.7-6.3 14.3-20.1 8-30.7l-0.1-0.1c-6.3-10.7-20.1-14.3-30.7-8L515 645.4c-10.6 6.3-14.2 20.1-8 30.8zM416.9 729c6.3 10.7 20.1 14.4 30.8 8.1l27.7-16.2c10.7-6.3 14.3-20.1 8-30.7l-0.1-0.1c-6.3-10.7-20.1-14.3-30.7-8l-27.7 16.2c-10.6 6.2-14.2 20.1-8 30.7zM326.8 781.9c6.3 10.7 20.1 14.4 30.8 8.1l27.7-16.2c10.7-6.3 14.3-20.1 8-30.7l-0.1-0.1c-6.3-10.7-20.1-14.3-30.7-8l-27.7 16.2c-10.6 6.2-14.2 20-8 30.7z"  horiz-adv-x="1024" />

    
    <glyph glyph-name="AppTimer" unicode="&#58988;" d="M509.8-11.700000000000045c-217.8 0-395 177.2-395 395s177.2 395 395 395 395-177.2 395-395-177.2-395-395-395z m0 733.5c-186.7 0-338.6-151.9-338.6-338.6s151.9-338.6 338.6-338.6 338.6 151.9 338.6 338.6-151.9 338.6-338.6 338.6zM487.2 630.5v-249.7c0-4.9-3.9-8.8-8.8-8.8H321c-9.8 0-19.4-5.7-22.4-15.1-5.1-15.5 6.5-30.1 21.3-30.1h203.6c4.9 0 8.9 4 8.9 8.9V631.6c0 14.8-14.5 26.5-30.1 21.3-9.4-3.1-15.1-12.6-15.1-22.4zM917 546.2c-12.4 5.4-19.1 18.8-16.1 32 2.3 10.4 3.3 21.2 2.8 32.2-2.4 54.1-42.5 100.8-95.6 111.4-10.4 2.1-20.8 2.8-31.1 2.2-13.1-0.8-24.8 7.8-28 20.5l-0.2 0.7c-4.3 17.1 7.7 34.2 25.1 35.2 16.1 0.9 32.4-0.4 48.6-3.9C899 759.9 956.2 692.1 960 613.8c0.8-16.6-0.6-32.9-4.2-48.7-4-17-22.8-25.9-38.8-18.9zM107.2 546.2c12.4 5.4 19.1 18.8 16.1 32-2.3 10.4-3.3 21.2-2.8 32.2 2.4 54.1 42.5 100.8 95.6 111.4 10.4 2.1 20.8 2.8 31.1 2.2 13.1-0.8 24.8 7.8 28 20.5l0.2 0.7c4.3 17.1-7.7 34.2-25.1 35.2-16.1 0.9-32.4-0.4-48.6-3.9C125.2 759.9 68 692.1 64.2 613.8c-0.8-16.6 0.6-32.9 4.2-48.7 4-17 22.8-25.9 38.8-18.9z"  horiz-adv-x="1024" />

    
    <glyph glyph-name="zhire" unicode="&#58989;" d="M506.4 189.1c-110.9 0-201.1 90.2-201.1 201s90.2 201 201.1 201 201.1-90.2 201.1-201-90.3-201-201.1-201z m0 344.5c-79.2 0-143.6-64.4-143.6-143.5s64.4-143.5 143.6-143.5S650 310.9 650 390.1s-64.5 143.5-143.6 143.5zM219.2 91.2a28.7 28.7 0 0 0-20.3 49l69.8 69.7a28.71 28.71 0 0 0 40.6-40.6l-69.8-69.7a28.7 28.7 0 0 0-20.3-8.4zM762.9 91.2a28.7 28.7 0 0 0-20.3 8.4l-69.8 69.7a28.71 28.71 0 0 0 40.6 40.6l69.8-69.7a28.7 28.7 0 0 0-20.3-49zM288.9 565a28.7 28.7 0 0 0-20.3 8.4l-69.8 69.7a28.71 28.71 0 0 0 40.6 40.6l69.8-69.7a28.7 28.7 0 0 0-20.3-49zM693.1 565a28.7 28.7 0 0 0-20.3 49l69.8 69.7a28.71 28.71 0 1 0 40.6-40.6l-69.8-69.7a28.53 28.53 0 0 0-20.3-8.4zM506.4-63.6a28.7 28.7 0 0 0-28.7 28.7V103a28.7 28.7 0 0 0 57.4 0v-137.8a28.79 28.79 0 0 0-28.7-28.8zM506.4 648.4a28.7 28.7 0 0 0-28.7 28.7V803.5a28.7 28.7 0 0 0 57.4 0v-126.3a28.79 28.79 0 0 0-28.7-28.8zM931.5 361.3H793.6a28.7 28.7 0 0 0 0 57.4h137.9a28.7 28.7 0 1 0 0-57.4zM219.1 361.3H92.7a28.7 28.7 0 1 0 0 57.4h126.4a28.7 28.7 0 0 0 0-57.4z"  horiz-adv-x="1024" />

    
    <glyph glyph-name="zhixiang" unicode="&#58990;" d="M394.3 128.7V461.5c0 14.1 11.5 25.6 25.6 25.6h184.3c14.1 0 25.6-11.5 25.6-25.6 0-14.1-11.5-25.6-25.6-25.6H471.1c-14.1 0-25.6-11.5-25.6-25.6v-64c0-14.1 11.5-25.6 25.6-25.6h133.1c14.1 0 25.6-11.5 25.6-25.6 0-14.1-11.5-25.6-25.6-25.6H471.1c-14.1 0-25.6-11.5-25.6-25.6v-64c0-14.1 11.5-25.6 25.6-25.6h133.1c14.1 0 25.6-11.5 25.6-25.6 0-14.1-11.5-25.6-25.6-25.6H419.9c-14.1 0-25.6 11.4-25.6 25.6zM771.3-24H258c-43.2 0-78.3 31.2-78.3 69.4V370.7H105c-17.1 0-32.1 10.3-38.2 26.2-6.1 15.9-1.9 33.6 10.7 45.1l392.7 334.3c23.6 21.3 60.1 21.3 84.4-0.6l392-333.7c12.7-11.5 16.9-29.2 10.8-45.1-6.1-15.9-21.1-26.3-38.2-26.3h-69.6v-325.3c0-38.2-35.1-69.3-78.3-69.3zM150.6 428.4h55.8c17.1 0 31-13.9 31-31v-352c0-4.6 8.2-11.7 20.5-11.7h513.4c12.3 0 20.5 7 20.5 11.7v352c0 17.1 13.9 31 31 31h50.7l-357 303.9c-2.8 2.5-6 2.5-8.2 0.6L150.6 428.4z"  horiz-adv-x="1024" />

    
    <glyph glyph-name="zhileng" unicode="&#58991;" d="M913.6 275.8l-114-32.1L573.2 374l218.3 128.5L913.6 468c2.8-0.8 5.5-1.1 8.2-1.1 13.2 0 25.4 8.7 29.1 22.1 4.5 16.1-4.8 32.8-20.9 37.3l-97.5 27.5 22.7 103.5c3.6 16.3-6.8 32.5-23.1 36-16.4 3.6-32.5-6.8-36-23.1l-23.9-108.9-235.4-138.6V685c0 4.9-1.2 9.5-3.2 13.6l83.4 81.3c12 11.7 12.2 30.8 0.5 42.8-11.6 12-30.8 12.2-42.8 0.6l-72.6-70.7L423.8 824c-12.4 11.3-31.5 10.4-42.8-2-11.3-12.3-10.4-31.5 2-42.7l94.3-86c-0.7-2.6-1.1-5.4-1.1-8.2v-255.2L268 549.7c-3.3 1.9-6.8 3.1-10.3 3.7l-30 117.9c-4.1 16.2-20.6 26-36.8 21.9-16.2-4.1-26-20.6-21.9-36.8l25-98.2L93 526c-15.9-5.1-24.7-22.1-19.7-38 4.1-12.9 16-21.1 28.8-21.1 3 0 6.1 0.5 9.2 1.4l117.1 37.3c2.4-3.3 5.5-6.2 9.3-8.3l215.1-123.9-225.3-132.7c-0.8-0.5-1.5-1-2.3-1.5l-113.9 36.2c-16 5.1-32.9-3.7-38-19.7-5.1-15.9 3.7-32.9 19.7-38l101-32.1-25-98.2c-4.1-16.2 5.7-32.7 21.9-36.8 2.5-0.6 5-0.9 7.5-0.9 13.5 0 25.8 9.1 29.3 22.8L257 187.9l1.2 0.6 218 128.3v-243.6l-92.7-84.5c-12.3-11.3-13.2-30.4-2-42.7 6-6.6 14.2-9.9 22.4-9.9 7.3 0 14.6 2.6 20.4 7.9l78.3 71.4 72.6-70.7c12-11.7 31.1-11.4 42.8 0.6 11.7 12 11.4 31.1-0.6 42.8l-80.7 78.6V325.1l233.7-134.5 25.6-117c3.1-14.1 15.6-23.8 29.5-23.8 2.1 0 4.3 0.2 6.5 0.7 16.3 3.6 26.7 19.7 23.1 36l-21.3 97.1c1 1.2 1.8 2.5 2.6 3.8 0.8 1.4 1.5 2.8 2 4.3l91.4 25.8c16.1 4.5 25.5 21.2 20.9 37.3-4.3 16.1-21 25.5-37.1 21z"  horiz-adv-x="1024" />

    
    <glyph glyph-name="zidong" unicode="&#58992;" d="M512 831.8C265.1 831.8 64.2 630.9 64.2 384S265.1-63.8 512-63.8 959.8 137.1 959.8 384 758.9 831.8 512 831.8z m0-840.1c-216.3 0-392.3 176-392.3 392.3s176 392.3 392.3 392.3 392.3-176 392.3-392.3-176-392.3-392.3-392.3zM691.1 258.4L556.3 633c-4.9 18.7-22.8 32.3-42.3 32.3-18.9 0-35.4-10.7-40.6-27.8L334 246.8c-14.2-32.6-32.2-64.1-55.3-96.2 50.1-4 101.5 27.6 116.8 78.5l25 70.9h182.3l27.3-70.2c19.2-55.4 53.7-83.2 115.4-79.2-10.3 16-24.3 42.4-42.2 79-4.6 9.2-8.8 19.2-12.2 28.8z m-259.4 76.7L514 582.9l79.3-247.8H431.7z"  horiz-adv-x="1024" />

    
    <glyph glyph-name="zidongqingjie" unicode="&#58993;" d="M432.6-33.3c-5.4 0-10.8 0.9-16.1 2.8l-179.6 63.1c-27 9.5-44.4 41.3-44.5 81.2 0 18 14.6 32.6 32.6 32.6s32.6-14.6 32.6-32.6c0-10.3 2.5-17.7 4.2-20.8l163.8-57.6c1.1 3.7 2 8.8 2 15.3V717.4c0 5.8-0.7 10.4-1.7 14l-164.1-76.7c-1.7-2.9-4.5-10.5-4.5-21.3 0-18-14.6-32.6-32.6-32.6s-32.6 14.6-32.6 32.6c0 36.9 15.6 68.1 39.9 79.4l179.8 84c15.5 7.2 32.7 6 47.3-3.2 20.9-13.3 33.9-42.5 33.9-76.1v-666.7c0-32.6-11.8-60.5-31.7-74.6-8.6-6.3-18.6-9.5-28.7-9.5zM340.1 384.1c0 23.5-18.9 43.1-43.1 43.1-23.5 0-43.1-19.6-43.1-43.1 0-24.2 19.6-43.1 43.1-43.1 24.2 0 43.1 18.9 43.1 43.1zM150.2 490.5c0 24.2-18.9 43.1-43.1 43.1-23.5 0-43.1-18.9-43.1-43.1 0-23.5 19.6-43.1 43.1-43.1 24.1 0 43.1 19.6 43.1 43.1zM150.2 277.7c0 23.5-18.9 43.1-43.1 43.1-23.5 0-43.1-19.6-43.1-43.1 0-24.2 19.6-43.1 43.1-43.1 24.1 0 43.1 19 43.1 43.1zM757.8 83.2l-45.6 276.1-167.1 42.4 166.4 38.5 41.8 230.4 40.4-231 166.5-31.4-167.1-48.3z"  horiz-adv-x="1024" />

    
    <glyph glyph-name="FanL" unicode="&#58994;" d="M935 326.29999999999995c-13.8 0-24.7 11.8-24.7 27.6 0 106.6-78 194.4-173.7 194.4H341.9c-95.7 0-173.7-86.8-173.7-194.4 0-14.8-10.9-27.6-24.7-27.6-13.8 0-24.7 11.8-24.7 27.6 0 137.2 99.7 248.7 223 248.7h394.7c122.4 0 223-111.5 223-248.7 0.2-15.8-10.7-27.6-24.5-27.6zM468 370.6c0.8 2-0.7 4.2-2.9 4.1-19.6-0.7-90.9-1.2-113.3-0.2-2.3 0.1-4.5-0.5-6.5-1.7-16.6-9.8-30.6-17.5-47.3-27.3-0.8-0.6-1.2-1.5-1-2.5 0.2-1 1.1-1.8 2.1-1.9 22.3-1.8 49.3-2.4 74-2.9 29.6-0.6 52-1.3 78.3 0 1.2 0.1 2.2 0.8 2.7 1.9 5.2 10.6 9.8 20.6 13.9 30.5zM147.6 244c-26.8-15.8-53.5-31.6-80.3-47.4-2-0.8-3.2-2.7-2.9-4.8 0.2-1.8 1.5-3.3 3.3-3.8 50.7-6.5 104.3-12 160.6-16 52.5-3.7 112.1-5.8 160-6.6 1.3 0 2.5 0.9 3 2.1 8.1 21.8 15.1 40 23.2 61.1 0.8 2-0.6 4.3-2.8 4.3-39.1-0.3-83 0.4-126.1 2.5-45.7 2.2-89.1 5.8-130.2 10.3-2.3 0.3-5.8-0.5-7.8-1.7zM445 308.4c0.8 2-0.7 4.1-2.8 4.1-15-0.3-65.1-1.3-95.6-0.4-25.5 0.7-69.6 3.7-82.6 4.7-2.5 0.2-4.8-0.4-7-1.7-11-6.5-47-27.7-66.6-39.3-1-0.8-1.5-2.1-1.1-3.3 0.3-1.1 1.2-1.9 2.4-2.2 36.4-4 73.4-5.8 111.4-7.2 40.6-1.6 79.7-1.5 120.8-1.5 1.2 0 2.4 0.8 2.9 2 6.3 14.7 12.7 30.8 18.2 44.8z"  horiz-adv-x="1024" />

    
    <glyph glyph-name="SwingLR" unicode="&#58995;" d="M934 332.33333333999997c-14.4 0-26.1 11.7-26.1 26.1 0 102.2-83.2 185.4-185.4 185.4H301.4C199.2 543.73333334 116 460.63333334 116 358.33333333999997c0-14.4-11.7-26.1-26.1-26.1s-26 11.7-26 26.1c0 130.9 106.5 237.5 237.5 237.5h421.2c130.9 0 237.5-106.5 237.5-237.5 0-14.4-11.7-26-26.1-26zM163.7 173.73333333999994c-4.1 0-8.2 0.9-12 2.9-12.8 6.6-17.7 22.4-11.1 35.1l93.9 180.8c6.6 12.8 22.4 17.7 35.1 11.1 12.8-6.6 17.7-22.4 11.1-35.1l-93.9-180.8c-4.6-8.8-13.7-14-23.1-14zM338.7 117.23333333999994c-1.7 0-3.3 0.2-5 0.5-14.1 2.8-23.3 16.5-20.5 30.6l46.6 237.3c2.8 14.1 16.5 23.3 30.6 20.5 14.1-2.8 23.3-16.5 20.5-30.6L364.2 138.33333333999997c-2.4-12.4-13.3-21.1-25.5-21.1zM513.2 86.83333333999997c-14.4 0-26.1 11.7-26.1 26.1V380.63333334000004c0 14.4 11.7 26.1 26.1 26.1s26.1-11.7 26.1-26.1v-267.8c0-14.4-11.7-26-26.1-26zM687.6 119.03333334000001c-12.2 0-23.1 8.6-25.5 21l-46.2 235.6c-2.8 14.1 6.4 27.8 20.5 30.6 14.1 2.8 27.8-6.4 30.6-20.5l46.2-235.6c2.8-14.1-6.4-27.8-20.5-30.6-1.7-0.3-3.4-0.5-5.1-0.5zM860.3 175.73333333999994c-9.6 0-18.8 5.3-23.4 14.5L748 369.13333334000004c-6.4 12.9-1.1 28.5 11.7 34.9 12.9 6.4 28.5 1.1 34.9-11.7l89-179c6.4-12.9 1.1-28.5-11.7-34.9-3.8-1.9-7.7-2.7-11.6-2.7z"  horiz-adv-x="1024" />

    
    <glyph glyph-name="chushi" unicode="&#58996;" d="M205.6 43.3c-7.6 0-15.2 2.9-21 8.6-11.7 11.6-11.8 30.5-0.2 42.3l612.9 619.9c11.6 11.7 30.5 11.8 42.3 0.2 11.7-11.6 11.8-30.5 0.2-42.3l-613-619.9c-5.8-5.9-13.5-8.8-21.2-8.8zM305.9 266.5c7.9 78 45.1 153.7 45.3 154.3l169 299.2c10.9 19.3 38.7 19.3 49.6 0l55.6-98.4c7.9-14 26.9-16.6 38.3-5.2l4.8 4.8c7.7 7.7 9.3 19.5 4 28.9L584.2 808.7c-17.1 30.7-61.3 30.8-78.4 0L299.9 438.9c-2.2-4.3-43.3-87.7-52.5-177.8-2.3-22.7 25.2-35.8 41.3-19.7l10.2 10.2c4.1 4 6.5 9.3 7 14.9zM720.2 500.9l-4-4c-7.7-7.7-9.3-19.6-4-29.1l27.8-49.2c2.9-6.1 56.2-118.4 44.9-209.8-13.9-113.3-115-212-235.2-213.9-1.3 0-2.6-0.1-3.8-0.2h-1.6c-77 1.1-146.3 42.1-190.4 101.4-8.7 11.7-25.9 12.4-36.2 2.2l-10.9-10.9c-8.6-8.6-9.6-22.3-2.2-32 54.7-71.4 141.9-117.8 238.9-119.2h0.7c1.6-0.1 3.2-0.2 4.9-0.2 2 0 3.8 0.2 5.5 0.4 147.5 4.2 271.2 112.3 288.4 253 13.7 111.7-49 241-51.7 246.5l-33.1 59.5c-7.5 14.2-26.7 16.9-38 5.5z"  horiz-adv-x="1024" />

    
    <glyph glyph-name="SmartWind" unicode="&#58997;" d="M515.3 463.5c-2.7 5.9-6.7 10.5-12 13.8-5.2 3.2-10.3 4.8-15.5 4.8-5.6-0.2-11.1-2.2-16.3-5.8-3.8-2.7-8.8-8-17.2-27.5L354.8 221c-1.4-3.6-1.9-7.4-1.4-11.2 0.5-4.2 2.6-8.4 6.2-12.4 5.1-5.7 10.6-7 14.7-7h0.9c4.5 0.2 8.5 1.5 12 3.7 3.5 2.3 6.2 5.4 8.1 9.5l27.1 58.7h131.1l23-52.9c3-7 6-11.5 9.7-14.2 3.8-2.9 8.4-4.4 12.7-4.4 5.7-0.3 11 1.7 15.4 5.6 4.3 3.9 6.9 8.7 7.4 14 0.4 4.8-1.1 10.8-5.4 20.8l-101 232.3zM536 305.79999999999995h-95.5l47.8 112 47.7-112zM665.5 481c-11.5 0-20.9-9.3-20.9-20.9V211c0-11.4 9.2-20.6 20.6-20.6 11.4 0 20.6 9.2 20.6 20.6l0.5 249.1c0.1 11.6-9.2 20.9-20.8 20.9zM634.5 769.7c-62.9 25.1-120 24.7-165.2-1-48.6-27.7-80.8-83.9-93.1-162.4-7.4-47.1-2.7-94 13.8-139.3 3.5-9.5 12.5-15.5 22.1-15.5 2.7 0 5.4 0.5 8.1 1.4 12.2 4.5 18.5 18 14 30.2-13.8 37.8-17.7 76.8-11.6 115.9 10 63.9 34.2 108.4 69.9 128.8 33.6 19.1 73 14.8 105 5.1L551.9 558c-3.3-12.6 4.3-25.4 16.8-28.7 12.6-3.3 25.4 4.3 28.7 16.8l51.1 195.8c3 11.5-3 23.4-14 27.8zM64.3 199.5c10.3-66.9 39.6-115.9 84.8-141.8 48.6-27.8 113.3-27.1 187.2 2.2 44.3 17.5 82.3 45.4 113 82.6 6.5 7.8 7 18.6 2.1 26.9-1.4 2.3-3.1 4.4-5.3 6.2-10 8.2-24.9 6.8-33.1-3.2-25.5-31.1-57.2-54.2-94-68.8-60.1-23.8-110.8-25.6-146.5-5.1-33.6 19.2-49.8 55.4-57.7 87.8l173.8 49.5c12.5 3.6 19.7 16.6 16.2 29.1s-16.6 19.7-29.1 16.2L81.1 225.70000000000005c-11.4-3.2-18.6-14.5-16.8-26.2zM877.1-15.299999999999955c53.5 41.4 82.3 90.7 83.1 142.8 0.9 56-31.1 112.2-92.5 162.8-36.8 30.3-79.5 50.1-127 58.9-10 1.9-19.7-2.9-24.5-11.2-1.4-2.3-2.3-4.9-2.9-7.7-2.4-12.8 6.1-25 18.8-27.4 39.5-7.3 75.1-23.8 105.7-49 49.9-41.1 76-84.6 75.3-125.7-0.6-38.7-24.3-70.4-49-93L736.7 163.39999999999998c-9.2 9.2-24 9.3-33.3 0.1-9.2-9.1-9.3-24-0.1-33.3L846-13.299999999999955c8.4-8.4 21.7-9.3 31.1-2z"  horiz-adv-x="1024" />

    
    <glyph glyph-name="zuoyoudingge" unicode="&#58998;" d="M538.4 396.83333334V112.33333333999997c0-14.6-11.8-26.4-26.4-26.4-14.6 0-26.4 11.8-26.4 26.4V396.83333334c0 14.6 11.8 26.4 26.4 26.4 14.6 0 26.4-11.8 26.4-26.4zM960.1 359.23333333999994c0-14.4-11.7-26.1-26.1-26.1-14.4 0-26.1 11.7-26.1 26.1 0 102.2-83.2 185.4-185.4 185.4H301.4c-102.2 0-185.4-83.2-185.4-185.4 0-14.4-11.7-26.1-26.1-26.1s-26.1 11.7-26.1 26.1c0 130.9 106.5 237.5 237.5 237.5h421.2c131.1 0 237.6-106.6 237.6-237.5zM659.6 330.23333333999994c12 3.2 19.2 15.6 16 27.6l-8.2 30.9c-3.2 12-15.6 19.2-27.6 16-12-3.2-19.2-15.6-16-27.6l8.2-30.9c3.3-12 15.7-19.2 27.6-16zM686.5 229.23333333999994c12 3.2 19.2 15.6 16 27.6l-8.2 30.9c-3.2 12-15.6 19.2-27.6 16-12-3.2-19.2-15.6-16-27.6l8.2-30.9c3.3-12 15.7-19.2 27.6-16zM713.4 128.23333333999994c12 3.2 19.2 15.6 16 27.6l-8.2 30.9c-3.2 12-15.6 19.2-27.6 16-12-3.2-19.2-15.6-16-27.6l8.2-30.9c3.2-12 15.6-19.2 27.6-16zM806.7 336.43333334c10.7 6.3 14.3 20.1 8 30.8l-16.2 27.6c-6.3 10.7-20.1 14.3-30.8 8-10.7-6.3-14.3-20.1-8-30.8l16.2-27.6c6.2-10.7 20.1-14.3 30.8-8zM859.6 246.23333333999994c10.7 6.3 14.3 20.1 8 30.8l-16.2 27.6c-6.3 10.7-20.1 14.3-30.8 8-10.7-6.3-14.3-20.1-8-30.8l16.2-27.6c6.2-10.7 20.1-14.3 30.8-8zM912.5 156.03333334c10.7 6.3 14.3 20.1 8 30.8l-16.2 27.6c-6.3 10.7-20.1 14.3-30.8 8-10.7-6.3-14.3-20.1-8-30.8l16.2-27.6c6.2-10.6 20.1-14.2 30.8-8zM366.7 330.23333333999994c-12 3.2-19.2 15.6-16 27.6l8.2 30.9c3.2 12 15.6 19.2 27.6 16 12-3.2 19.2-15.6 16-27.6l-8.2-30.9c-3.3-12-15.7-19.2-27.6-16zM339.8 229.23333333999994c-12 3.2-19.2 15.6-16 27.6l8.2 30.9c3.2 12 15.6 19.2 27.6 16 12-3.2 19.2-15.6 16-27.6l-8.2-30.9c-3.2-12-15.6-19.2-27.6-16zM312.9 128.23333333999994c-12 3.2-19.2 15.6-16 27.6l8.2 30.9c3.2 12 15.6 19.2 27.6 16 12-3.2 19.2-15.6 16-27.6l-8.2-30.9c-3.2-12-15.6-19.2-27.6-16zM219.6 336.43333334c-10.7 6.3-14.3 20.1-8 30.8l16.2 27.6c6.3 10.7 20.1 14.3 30.8 8 10.7-6.3 14.3-20.1 8-30.8l-16.2-27.6c-6.2-10.7-20.1-14.3-30.8-8zM166.7 246.23333333999994c-10.7 6.3-14.3 20.1-8 30.8l16.2 27.6c6.3 10.7 20.1 14.3 30.8 8 10.7-6.3 14.3-20.1 8-30.8l-16.2-27.6c-6.2-10.7-20.1-14.3-30.8-8zM113.8 156.03333334c-10.7 6.3-14.3 20.1-8 30.8l16.2 27.6c6.3 10.7 20.1 14.3 30.8 8 10.7-6.3 14.3-20.1 8-30.8l-16.2-27.6c-6.2-10.6-20.1-14.2-30.8-8z"  horiz-adv-x="1024" />

    
    </font>
</defs>
</svg>
